<svg xmlns="http://www.w3.org/2000/svg" viewBox="0 0 254.22 17.77"><defs><style>.cls-1{fill:#00af84;}</style></defs><g id="レイヤー_2" data-name="レイヤー 2"><g id="レイヤー_2-2" data-name="レイヤー 2"><path class="cls-1" d="M5.87,2.61a19.89,19.89,0,0,1-3.91,8L0,8.28A15.53,15.53,0,0,0,3.33,1.73ZM15,10.23C12.64,14.06,9.4,17,1.24,17.77L.29,14.94c8.19-.32,10.91-3.79,12.4-6.32ZM10.21.56V9.22a2.17,2.17,0,0,1-2.45,2.45H5L4.56,8.89H6.91c.22,0,.47,0,.47-.52V.56ZM16,10.35c-1.76-1.56-3.27-4-4.61-7.68l2.49-1a19,19,0,0,0,3.89,6.27Z"/><path class="cls-1" d="M26.05,1.53c-.15,2.58-.27,8.41-.27,9,0,2,.25,3.48,2.75,3.48,4,0,4.58-3.3,5-5.49l2.69,1.27c-1.1,5.24-3.77,7-7.66,7-4.9,0-5.69-2.77-5.69-6.36,0-1.42.08-7.69.09-9Z"/><path class="cls-1" d="M40.61,16.06A49.83,49.83,0,0,0,43.33,6H41.06V3.29h2.63c.07-.66.09-1,.16-2l3,.11c-.11.9-.12,1-.25,1.9h4V6H46.14a88.75,88.75,0,0,1-2.63,10.94Zm9.45-4.32a1.82,1.82,0,0,0-.52,1.15c0,.79.72,1.06,3.1,1.06A31.65,31.65,0,0,0,56,13.79l.06,2.83c-.74,0-1.41.05-2.79.05-2.85,0-4-.2-5.12-.86a2.76,2.76,0,0,1-1.29-2.31,4.6,4.6,0,0,1,1-2.64Zm5.73-3c-.49,0-1.14-.08-2-.08a12,12,0,0,0-4.61.74l-1-2.39C50.44,6.12,51.79,6,55.79,6ZM52.8.88a15.3,15.3,0,0,1,1.69,3.53l-1.58.69A14.66,14.66,0,0,0,51.3,1.49ZM55.43.23a16.34,16.34,0,0,1,1.71,3.53l-1.59.69A15.42,15.42,0,0,0,53.93.86Z"/><path class="cls-1" d="M64.39,1.67A43.38,43.38,0,0,0,63.78,9a27.86,27.86,0,0,0,.72,7l-3,.4a32.32,32.32,0,0,1-.61-6.86,58.44,58.44,0,0,1,.6-8.14Zm.81,5.82V4.79h5.33c0-.54-.09-2.88-.09-3.37h3c0,.58,0,2.31,0,3.37h2.63v2.7H73.5c0,4.36.07,8.28-6.27,9.4L66,14.22c4.41-.75,4.68-2.14,4.61-6.73Z"/><path class="cls-1" d="M86.87,16c-1,.48-1.82.81-3.06,1.3v-4.9h-.74c-.14,2.63-.77,3.94-2.36,5.33l-1.53-2.16A3.7,3.7,0,0,0,81,12.39h-.88V7.85h7v4.54H86V14c.28-.11,1.42-.65,1.6-.74L87.72,15A3,3,0,0,0,89,12.39h-.81V7.85h7.67v4.54H94v2.34c0,.23,0,.41.2.41.38,0,.45,0,.45-.3s0-1.23,0-1.43l2,.47c0,2-.11,3.71-1.57,3.71h-2a1.16,1.16,0,0,1-1.32-1.24v-4h-.66c-.15,2.95-.94,4.08-3.15,5.29ZM82.48.56H85v1h2.45V3.76h-.67a9.07,9.07,0,0,1-.29,1.17h1V7.17h-8V4.93h1.36a6,6,0,0,0-.18-1.17H80V1.57h2.49Zm.07,8.93v1.26H84.8V9.49Zm.32-5.73c.11.42.18.81.24,1.17h1.17a5.62,5.62,0,0,0,.21-1.17Zm8-3.2h2.55v1h2.69V3.76h-.67c-.09.33-.21.85-.31,1.17h1.41V7.17H87.92V4.93h1.2c0-.07-.11-.75-.2-1.17H88V1.57h2.88Zm-.18,8.93v1.26h2.73V9.49Zm.57-5.73c0,.2.17,1,.2,1.17h1.3A6,6,0,0,0,93,3.76Z"/><path class="cls-1" d="M102.67,12.32a11.7,11.7,0,0,1-1.29,5.4L99.13,15.9a9.53,9.53,0,0,0,1.15-4Zm7.15-2.94h6.23c0,2.2-.36,6-1,7.08a2,2,0,0,1-1.84,1.11h-3l-.45-2.52,2.42.07a.58.58,0,0,0,.52-.28,11.35,11.35,0,0,0,.41-3.37H100.49V1.15h15.22V3.44h-5.89V4.3h5V5.94h-5v.87h5V8.5h-5Zm-2.59-5.94h-4V4.3h4Zm0,2.5h-4v.87h4Zm0,2.56h-4v.88h4Zm-1.84,4a18.89,18.89,0,0,1,.34,4.57l-2.39.15a21.32,21.32,0,0,0,.18-2.69,9.72,9.72,0,0,0-.16-2Zm3-.16a23.14,23.14,0,0,1,.78,4l-2.22.36a19.62,19.62,0,0,0-.59-4.2Zm3.21-.33a10.54,10.54,0,0,1,.7,2.33l-2.09.39a8.57,8.57,0,0,0-.74-2.46Z"/><path class="cls-1" d="M128.36,1.4h7.35V17.23h-7.35V14.44l-1.65,2.32a12.3,12.3,0,0,1-2.4-3.58,12.42,12.42,0,0,1-3.6,4.56L119,15.41a7.79,7.79,0,0,0,3.58-5.15h-3.47V7.67h3.78V5h-.47a16.73,16.73,0,0,1-1.29,2.32l-2.2-1.65A12.5,12.5,0,0,0,121.21.45l2.61.27c-.14.59-.23.88-.45,1.67h4.4V5h-2.29v2.7H128v2.59h-2.75v0a14.12,14.12,0,0,0,3.15,4ZM133.08,4h-2.16V14.58h2.16Z"/><path class="cls-1" d="M144.72,3.6V5.76h-5.78V3.6ZM144.31.92V3h-5V.92Zm0,5.42v2.1h-5V6.34Zm0,2.7v2.09h-5V9Zm0,2.68v5.66h-5V11.72Zm-1.87,2h-1v1.57h1ZM153.08.58c0,2.79,0,3.09,0,5.51H156V8.34h-2.85c0,.88.08,1.2.2,2.43a18.22,18.22,0,0,0,1-2.13l1.55,1a21,21,0,0,1-2.06,4.12c.1.24.2.62.46.62s.9-1.44,1.13-2l.9,2.54c-.65,1.93-1.33,2.81-2.34,2.81-.24,0-1.24,0-2-1.73a12.26,12.26,0,0,1-2.34,1.75l-.79-1.26H145V9.11h5.19V14.3a13.23,13.23,0,0,0,1.13-1,39.58,39.58,0,0,1-.47-5h-6.1V6.09h.92c0-.6-.16-1.55-.27-2.15h-.61V1.73h1.83V.58h2.29V1.73h1.85c0-.67,0-.7,0-1.15Zm-4.85,10.35h-1.35V12h1.35Zm0,2.48h-1.35v1.16h1.35ZM148,6.09a20.47,20.47,0,0,0,.3-2.15H147.1c.09.52.11.69.29,2.15Zm2.75,0c0-1.32,0-1.46,0-2.15h-.7c-.09.87-.18,1.44-.3,2.15Zm3.4-1a13.66,13.66,0,0,0-1.1-3.47L155,1.12a12.29,12.29,0,0,1,1.15,3.4Z"/><path class="cls-1" d="M173.45,2.65V5.06h-7.36a15.32,15.32,0,0,1-.76,1.57A4.72,4.72,0,0,1,167.55,6a2.66,2.66,0,0,1,2.75,1.67,42.43,42.43,0,0,1,4.11-1.37L174.93,9a34.69,34.69,0,0,0-4.11,1.09,23.59,23.59,0,0,1,0,2.9h-2.7a11.82,11.82,0,0,0,.05-1.87c-.81.4-2,1-2,2s1.32,1.16,3.19,1.16a37.92,37.92,0,0,0,4.52-.24v2.7c-2.68.08-3.24.08-3.87.08-2.7,0-6.79-.09-6.79-3.34,0-2.41,2.79-3.81,4.54-4.68a1.23,1.23,0,0,0-1.14-.54,4.68,4.68,0,0,0-3.24,2,17.38,17.38,0,0,1-2.07,2.64l-1.92-2a15.65,15.65,0,0,0,3.81-5.76h-3.09V2.65H164c.15-.67.22-1,.31-1.64l3,.16c-.18.83-.23,1.06-.36,1.48Z"/><path class="cls-1" d="M180.78,3.21a15.21,15.21,0,0,0-1.1-1.91L182.4.59a11.38,11.38,0,0,1,1.36,2.62H186a14.42,14.42,0,0,0-1-2.13l2.74-.63a14.78,14.78,0,0,1,1.17,2.76h1.64A15.8,15.8,0,0,0,191.58.52l2.9.63a15.23,15.23,0,0,1-1,2.06h1.73V7.65h-2.29v1a20.55,20.55,0,0,1-3.72,2.17h6.44v2.44H188.5v2.58a1.68,1.68,0,0,1-1.75,1.85h-3.89l-.45-2.61H185c.48,0,.64-.05.64-.68V13.23h-7.18V10.79h7.18V9.88h.71a5.06,5.06,0,0,0,1.67-1h-6.82V7.65H178.9V3.21ZM192.5,5.56H181.6v1h10.9Z"/><path class="cls-1" d="M205.38,2.2V4.75a7.28,7.28,0,0,0-3,5.91c0,2.57,1.48,3.33,3.28,3.33,2.46,0,3.49-1.31,3.49-3.85a18.5,18.5,0,0,0-1.85-7.94l2.52-.81A8.23,8.23,0,0,0,215,6.79l-1.12,2.93a7,7,0,0,1-2.56-2,8.33,8.33,0,0,1,.4,2.79c0,3.35-1.19,6.28-5.92,6.28-5.71,0-6.2-4.18-6.2-5.69A9.38,9.38,0,0,1,202,5l-2.54,0V2.2ZM211.94.41A15.44,15.44,0,0,1,213.43,4L212,4.61A15,15,0,0,0,210.57,1ZM214.42,0a15.2,15.2,0,0,1,1.51,3.56l-1.46.64a14,14,0,0,0-1.4-3.61Z"/><path class="cls-1" d="M218.81,16.06A48.7,48.7,0,0,0,221.53,6h-2.27V3.29h2.63c.07-.66.09-1,.16-2l3,.11c-.11.9-.13,1-.25,1.9h4V6h-4.39a88.75,88.75,0,0,1-2.63,10.94Zm9.45-4.32a1.82,1.82,0,0,0-.52,1.15c0,.79.72,1.06,3.1,1.06a31.65,31.65,0,0,0,3.38-.16l.06,2.83c-.74,0-1.41.05-2.8.05-2.79,0-4-.2-5.11-.86a2.77,2.77,0,0,1-1.3-2.31,4.59,4.59,0,0,1,1-2.64Zm5.73-3c-.49,0-1.14-.08-2-.08a12,12,0,0,0-4.61.74l-1-2.39C228.64,6.12,230,6,234,6Z"/><path class="cls-1" d="M242.19,2.3A35.81,35.81,0,0,0,241.67,8c0,1.53.07,5.06,1.44,5.06.88,0,1.64-1.89,2.12-3.34l2.33,1.4c-.92,2.72-2.34,5.26-4.59,5.26-3.66,0-4.13-5.55-4.13-8.79,0-2,.22-4.34.35-5.56Zm8.93,12.37c.11-2.91,0-8.17-3.08-10.69l2.31-1.51c2.36,2.25,3.87,4.62,3.87,12.06Z"/></g></g></svg>