<svg xmlns="http://www.w3.org/2000/svg" viewBox="0 0 174.71 38.27"><defs><style>.cls-1{fill:#00af84;}</style></defs><g id="レイヤー_2" data-name="レイヤー 2"><g id="レイヤー_2-2" data-name="レイヤー 2"><path class="cls-1" d="M3.55,11.92a11.8,11.8,0,0,1-1.3,5.4L0,15.5a9.38,9.38,0,0,0,1.15-4ZM10.7,9h6.22c0,2.19-.35,6-1,7.07a2,2,0,0,1-1.83,1.12h-3l-.45-2.52,2.41.07a.57.57,0,0,0,.52-.29A11.6,11.6,0,0,0,14,11.07H1.37V.76H16.58V3H10.7v.87h5V5.55h-5v.86h5V8.1h-5ZM8.1,3h-4v.87h4Zm0,2.51h-4v.86h4Zm0,2.55h-4V9h4Zm-1.83,4a19.53,19.53,0,0,1,.34,4.58l-2.4.14a19.38,19.38,0,0,0,.18-2.68,9.84,9.84,0,0,0-.16-2Zm3-.16a23.52,23.52,0,0,1,.78,4l-2.22.36A18.79,18.79,0,0,0,7.22,12Zm3.21-.32a10.29,10.29,0,0,1,.7,2.32l-2.09.4a8.61,8.61,0,0,0-.74-2.47Z"/><path class="cls-1" d="M37.08,5.89V8.3h-2.8a10.63,10.63,0,0,0,3.11,2L36,12.84a14.13,14.13,0,0,1-1.82-1.15c-.38,4.37-.81,5.52-2.66,5.52H28.64L28.1,14.6h2.2a.75.75,0,0,0,.81-.43,10.47,10.47,0,0,0,.3-2.25H28.6c-.55,3.22-2.79,5-7.36,5.46l-1-2.49c3.78-.18,5.31-1.48,5.61-3H23.56v-.54a12.05,12.05,0,0,1-2.32,1.42L19.8,10.44A11.05,11.05,0,0,0,23.17,8.3H19.94V5.89h5.21a9.14,9.14,0,0,0,.61-1.17H20.63V2.36H23a11.36,11.36,0,0,0-1-1.68L24.59.05a15.82,15.82,0,0,1,1.3,2.31h.7A12.74,12.74,0,0,0,27,0l2.83.16c-.13.61-.22,1.12-.5,2.2H31A13.64,13.64,0,0,0,32.13.05L35,.77A11.28,11.28,0,0,1,34,2.36h2.4V4.72H31.68a6,6,0,0,0,.56,1.17Zm-5.2,3.69c-.43-.5-.63-.76-1-1.28H26.61a15.38,15.38,0,0,1-1,1.28ZM29.45,5.89c-.22-.49-.31-.72-.47-1.17h-.45c-.18.45-.27.66-.52,1.17Z"/><path class="cls-1" d="M48.06,13.56c2.38-.18,5.28-1.23,5.28-5.17,0-3.13-1.91-4.21-3.73-4.39,0,1.11-.68,10.85-5.58,10.85-2.66,0-3.76-2.95-3.76-5.4,0-5.31,4-8.19,8.48-8.19,5.24,0,7.61,3.35,7.61,7.26a7.84,7.84,0,0,1-2.52,6A9,9,0,0,1,49,16.33Zm-5-4c0,.61.18,2.23,1.12,2.23s2.21-2.25,2.7-7.6A5.28,5.28,0,0,0,43,9.53Z"/><path class="cls-1" d="M66.13,10.12l-.91,2a11.59,11.59,0,0,1-1-1.8v7H61.72V11.33a16.57,16.57,0,0,1-1.53,3.34l-.95-3.52a12.85,12.85,0,0,0,2.25-4H59.62V4.66h2.1V3.15c-1,.09-1.33.09-1.82.11L59.62.83A23.73,23.73,0,0,0,65.13.11l.7,2.39a9,9,0,0,1-1.66.36v1.8h1.46V3.19h4.23V2.58c-1.73,0-2.65,0-3.47,0L66.08.74A60.09,60.09,0,0,0,75.73.16l.58,2c-.87.13-2,.24-4,.35v.7H76.6v2H72.29v.63h3.8V11.7h-3.8v.69h4v1.73h-4v.72h4.36v2H65.09v-2h4.77v-.72H65.77V12.39h4.09V11.7H66.13Zm0-4.3h3.73V5.19H65.63v2H64.19a13.34,13.34,0,0,0,1.94,2.66Zm2.34,1.6v.77h1.39V7.42Zm0,1.94v.8h1.39v-.8Zm3.82-1.94v.77h1.39V7.42Zm0,1.94v.8h1.39v-.8Z"/><path class="cls-1" d="M82.51,7.11a9,9,0,0,1-2,2l-1.4-1.88a10.75,10.75,0,0,0,2.34-1.72h-2V3.29h3.09V.2h2.36V3.29h2.9V5.55H85.83a8,8,0,0,0,2.25,1.63L86.8,9.08a7.82,7.82,0,0,1-1.93-2V8.75H82.51ZM86,16.4a10.61,10.61,0,0,1-2.2-2.48,9.79,9.79,0,0,1-3,3.46l-1.6-2.24A6.66,6.66,0,0,0,82,12.32H79.42V10h3.06c0-.25,0-.47,0-.92h2.36c0,.23,0,.45,0,.92h2.93v2.36H85.29a7.34,7.34,0,0,0,2.3,2l-.63.83a9.37,9.37,0,0,0,3.28-1.62H88.42V4h2.25c.11-.49.13-.52.2-.92h-3V.68h8.48V3.06h-2.9c-.15.54-.16.58-.27.92h2.72v9.54H94A8.09,8.09,0,0,0,96.72,15L95.55,17.3A12.4,12.4,0,0,1,92.18,15l1.41-1.44H90.65L92,15a12.38,12.38,0,0,1-4,2.29l-1.15-2ZM81.45.31a11,11,0,0,1,.9,2.28l-2,.6A14.89,14.89,0,0,0,79.4,1Zm6.39.52A15.47,15.47,0,0,1,87,3.22l-2-.57A10.21,10.21,0,0,0,85.79.31Zm3,5v.84h2.5V5.82Zm0,2.44v.91h2.5V8.26Zm0,2.44v.88h2.5V10.7Z"/><path class="cls-1" d="M104.11,1.41a44.11,44.11,0,0,0-.7,8.28,33.91,33.91,0,0,0,.49,6.43l-3,.19a33.8,33.8,0,0,1-.43-6.12,60.25,60.25,0,0,1,.63-9Zm4.65,7.86a3.84,3.84,0,0,0-.87,2c0,1.17,1.34,1.31,2.92,1.31.56,0,2.74,0,4.29-.21l.05,2.91a24.74,24.74,0,0,1-3.29.18c-3.82,0-6.61-.54-6.61-3.74a6,6,0,0,1,1-3.17Zm6-6.86V5.22h-9V2.41Z"/><path class="cls-1" d="M123.93,13c6.88,0,8.28-2.21,8.28-4.53a3,3,0,0,0-3.33-3.28c-1.49,0-3,.23-8.87,1.66l-.71-3.12c.85-.12,4.58-.77,5.33-.9a29.09,29.09,0,0,1,4.45-.47,5.8,5.8,0,0,1,6.21,6.07A6.42,6.42,0,0,1,131,14.62a18.07,18.07,0,0,1-6.2,1.13Z"/><path class="cls-1" d="M143.07,1.91a35.48,35.48,0,0,0-.53,5.69c0,1.53.08,5.06,1.44,5.06.89,0,1.64-1.89,2.13-3.35l2.32,1.4c-.92,2.72-2.34,5.26-4.59,5.26-3.66,0-4.12-5.54-4.12-8.79,0-2,.21-4.33.34-5.56ZM152,14.28c.1-2.92,0-8.18-3.08-10.7l2.3-1.51c2.36,2.25,3.87,4.63,3.87,12.06Z"/><path class="cls-1" d="M174.71,4.45c-.55,0-1.06-.06-1.46-.06a8.22,8.22,0,0,0-2.16.24c-2.55.75-5.43,3.4-5.43,5.94,0,1.69,1.35,2.68,6,2.68.84,0,1.26,0,1.62-.05l-.4,3.09a22.89,22.89,0,0,1-5.82-.54c-3.79-.95-4.33-3.61-4.33-5,0-2.45,1.58-4.54,3.85-6.07-1.6.13-5.69.49-7.06.67l-.16-3.1c1.17,0,1.71,0,3.8-.2,3.83-.25,7.33-.36,11.5-.48Z"/><path class="cls-1" d="M2.45,23.81a15.41,15.41,0,0,0-1.1-1.91l2.72-.7a11.4,11.4,0,0,1,1.37,2.61H7.63a13.71,13.71,0,0,0-1-2.13l2.73-.63a14.78,14.78,0,0,1,1.17,2.76h1.64a15,15,0,0,0,1.08-2.68l2.9.63a14.54,14.54,0,0,1-1,2h1.73v4.45H14.57v1a20.55,20.55,0,0,1-3.73,2.16h6.45v2.45H10.17v2.57a1.68,1.68,0,0,1-1.74,1.86H4.54l-.45-2.61H6.68c.49,0,.65-.06.65-.69V33.84H.14V31.39H7.33v-.9H8a5.1,5.1,0,0,0,1.68-.95H2.88V28.26H.58V23.81Zm11.72,2.36H3.28v1H14.17Z"/><path class="cls-1" d="M27.06,22.8v2.56a7.25,7.25,0,0,0-3,5.9c0,2.58,1.48,3.33,3.28,3.33,2.47,0,3.49-1.31,3.49-3.85a18.39,18.39,0,0,0-1.85-7.94L31.45,22a8.19,8.19,0,0,0,5.22,5.4l-1.12,2.94a6.94,6.94,0,0,1-2.55-2,8.69,8.69,0,0,1,.39,2.79c0,3.35-1.18,6.29-5.92,6.29-5.71,0-6.19-4.18-6.19-5.69a9.37,9.37,0,0,1,2.37-6.14l-2.54.05V22.8ZM33.61,21a14.67,14.67,0,0,1,1.49,3.55l-1.44.64a14.76,14.76,0,0,0-1.42-3.6Zm2.48-.42a15.73,15.73,0,0,1,1.52,3.57l-1.46.63a14,14,0,0,0-1.41-3.6Z"/><path class="cls-1" d="M40.48,36.67A48.32,48.32,0,0,0,43.2,26.58H40.93V23.9h2.63c.07-.67.09-1,.16-2l3,.11c-.1.9-.12,1.05-.25,1.91h4v2.68H46a85.44,85.44,0,0,1-2.63,11Zm9.46-4.33a1.87,1.87,0,0,0-.53,1.16c0,.79.72,1.06,3.1,1.06a31.91,31.91,0,0,0,3.39-.16L56,37.22c-.74,0-1.41.06-2.79.06-2.79,0-4-.2-5.12-.87a2.75,2.75,0,0,1-1.29-2.3,4.71,4.71,0,0,1,1-2.65Zm5.72-3c-.49,0-1.13-.07-2-.07a12,12,0,0,0-4.6.74l-1-2.4c2.28-.93,3.63-1.1,7.63-1.08Z"/><path class="cls-1" d="M63.87,22.91a35.48,35.48,0,0,0-.53,5.69c0,1.53.08,5.06,1.44,5.06.89,0,1.64-1.89,2.13-3.35l2.32,1.4C68.31,34.43,66.89,37,64.64,37c-3.66,0-4.12-5.54-4.12-8.79,0-2.05.21-4.33.34-5.56ZM72.8,35.28c.1-2.92,0-8.18-3.08-10.7L72,23.07c2.36,2.25,3.87,4.63,3.87,12.06Z"/></g></g></svg>