<svg xmlns="http://www.w3.org/2000/svg" viewBox="0 0 174.93 38.43"><defs><style>.cls-1{fill:#00af84;}</style></defs><g id="レイヤー_2" data-name="レイヤー 2"><g id="レイヤー_2-2" data-name="レイヤー 2"><path class="cls-1" d="M5.87,2.38a19.85,19.85,0,0,1-3.91,8L0,8.05A15.65,15.65,0,0,0,3.33,1.5ZM15,10c-2.32,3.84-5.56,6.74-13.72,7.55L.29,14.71c8.19-.32,10.91-3.8,12.4-6.32ZM10.21.32V9a2.17,2.17,0,0,1-2.45,2.44H5L4.55,8.66H6.91c.22,0,.47,0,.47-.52V.32ZM16,10.12c-1.76-1.57-3.27-4-4.61-7.69l2.49-1a19,19,0,0,0,3.89,6.27Z"/><path class="cls-1" d="M26.05,1.3c-.15,2.57-.27,8.41-.27,9,0,2,.25,3.47,2.75,3.47,4,0,4.58-3.29,5-5.49l2.68,1.28c-1.09,5.24-3.76,7-7.65,7-4.9,0-5.69-2.78-5.69-6.36,0-1.42.07-7.69.09-9Z"/><path class="cls-1" d="M40.61,15.83A49.91,49.91,0,0,0,43.33,5.74H41.06V3.06h2.63c.07-.66.09-1,.16-2l3,.11c-.11.9-.13,1.05-.25,1.91h4V5.74H46.14a88.94,88.94,0,0,1-2.63,11Zm9.45-4.32a1.8,1.8,0,0,0-.52,1.15c0,.79.72,1.06,3.1,1.06A31.65,31.65,0,0,0,56,13.56l.06,2.83c-.74,0-1.41.05-2.8.05-2.84,0-4-.2-5.11-.86a2.77,2.77,0,0,1-1.3-2.31,4.66,4.66,0,0,1,1-2.65Zm5.73-3c-.49,0-1.14-.07-2-.07a12,12,0,0,0-4.61.74l-1-2.4c2.29-.93,3.64-1.09,7.64-1.08Zm-3-7.9a15.11,15.11,0,0,1,1.69,3.53l-1.58.68a14.76,14.76,0,0,0-1.61-3.6ZM55.43,0a16.34,16.34,0,0,1,1.71,3.53l-1.59.68A15.53,15.53,0,0,0,53.93.63Z"/><path class="cls-1" d="M64.39,1.44a43.26,43.26,0,0,0-.61,7.36,28,28,0,0,0,.72,7l-3,.39a32.32,32.32,0,0,1-.61-6.86,60.12,60.12,0,0,1,.59-8.14Zm.81,5.82V4.56h5.33c0-.54-.09-2.89-.09-3.37h3c0,.57,0,2.3,0,3.37h2.63v2.7H73.5c0,4.35.07,8.28-6.27,9.4L66,14c4.41-.76,4.68-2.14,4.61-6.73Z"/><path class="cls-1" d="M86.87,15.75c-1,.49-1.82.82-3.06,1.3v-4.9h-.74c-.14,2.63-.77,4-2.36,5.33l-1.53-2.16A3.7,3.7,0,0,0,81,12.15h-.88V7.62h7v4.53H86v1.59c.28-.11,1.42-.65,1.6-.74l.11,1.73A3,3,0,0,0,89,12.15h-.81V7.62h7.67v4.53H94V14.5c0,.23,0,.41.2.41.38,0,.45,0,.45-.31s0-1.22,0-1.42l2,.47c0,2-.11,3.71-1.57,3.71h-2a1.16,1.16,0,0,1-1.32-1.24v-4h-.66c-.15,3-.94,4.09-3.16,5.3ZM82.48.32H85v1h2.45v2.2h-.67a10,10,0,0,1-.29,1.17h1V6.93h-8V4.7h1.37a6.76,6.76,0,0,0-.18-1.17H80V1.33h2.49Zm.07,8.93v1.27H84.8V9.25Zm.32-5.72c.11.41.18.81.24,1.17h1.17a5.74,5.74,0,0,0,.21-1.17Zm8-3.21h2.55v1h2.69v2.2h-.67c-.09.32-.22.85-.31,1.17h1.41V6.93H87.91V4.7h1.21c0-.07-.11-.76-.2-1.17H88V1.33h2.88Zm-.18,8.93v1.27h2.73V9.25Zm.57-5.72c0,.2.17,1,.2,1.17h1.3A6,6,0,0,0,93,3.53Z"/><path class="cls-1" d="M102.67,12.08a11.79,11.79,0,0,1-1.29,5.4l-2.25-1.81a9.56,9.56,0,0,0,1.15-4Zm7.15-2.93h6.23c0,2.19-.36,6-1,7.07a2,2,0,0,1-1.84,1.12h-3l-.45-2.52,2.42.07a.56.56,0,0,0,.52-.29,11.68,11.68,0,0,0,.41-3.36H100.49V.92h15.22V3.21h-5.89v.86h5V5.71h-5v.86h5V8.26h-5Zm-2.59-5.94h-4v.86h4Zm0,2.5h-4v.86h4Zm0,2.55h-4v.89h4Zm-1.84,4a18.89,18.89,0,0,1,.34,4.57l-2.39.14a21,21,0,0,0,.18-2.68,9.65,9.65,0,0,0-.16-2Zm3-.17a23.33,23.33,0,0,1,.77,4l-2.21.36a19.42,19.42,0,0,0-.59-4.2Zm3.21-.32a10.29,10.29,0,0,1,.7,2.32l-2.09.4a9,9,0,0,0-.74-2.47Z"/><path class="cls-1" d="M128.36,1.17h7.35V17h-7.35V14.21l-1.66,2.32A12.6,12.6,0,0,1,124.31,13a12.36,12.36,0,0,1-3.6,4.55L119,15.18A7.81,7.81,0,0,0,122.54,10h-3.47V7.44h3.78V4.74h-.47a16.73,16.73,0,0,1-1.29,2.32l-2.2-1.66A12.52,12.52,0,0,0,121.21.22l2.61.27c-.14.59-.23.88-.45,1.67h4.4V4.74h-2.29v2.7H128V10h-2.75v0a14.12,14.12,0,0,0,3.15,4Zm4.72,2.63h-2.16V14.35h2.16Z"/><path class="cls-1" d="M144.72,3.37V5.53h-5.78V3.37ZM144.31.68V2.79h-5V.68Zm0,5.42V8.21h-5V6.1Zm0,2.7v2.09h-5V8.8Zm0,2.69v5.65h-5V11.49Zm-1.88,2h-1V15h1ZM153.08.34c0,2.79,0,3.1,0,5.51H156V8.1h-2.85c0,.89.07,1.21.2,2.43a17,17,0,0,0,1-2.12l1.55,1a21.56,21.56,0,0,1-2.06,4.12c.09.23.2.61.45.61s.91-1.44,1.14-2l.9,2.54c-.65,1.92-1.33,2.81-2.34,2.81-.24,0-1.24,0-2-1.73a12.28,12.28,0,0,1-2.34,1.74l-.79-1.26H145V8.88h5.19v5.18a13.12,13.12,0,0,0,1.13-1,39.56,39.56,0,0,1-.47-5h-6.1V5.85h.92c0-.59-.16-1.55-.27-2.14h-.61V1.5h1.83V.34h2.29V1.5h1.85c0-.67,0-.71,0-1.16ZM148.23,10.7h-1.35v1.09h1.35Zm0,2.48h-1.35v1.15h1.35ZM148,5.85a18.1,18.1,0,0,0,.31-2.14H147.1c.09.52.11.68.29,2.14Zm2.76,0c0-1.31,0-1.46,0-2.14h-.7c-.09.86-.18,1.44-.3,2.14Zm3.4-1a13.66,13.66,0,0,0-1.1-3.47L155,.88a12.83,12.83,0,0,1,1.15,3.41Z"/><path class="cls-1" d="M173.45,2.41V4.83h-7.36a15.3,15.3,0,0,1-.76,1.56,4.72,4.72,0,0,1,2.22-.63,2.66,2.66,0,0,1,2.75,1.68,42.43,42.43,0,0,1,4.11-1.37l.52,2.66a35,35,0,0,0-4.11,1.1,23.52,23.52,0,0,1,0,2.9h-2.7a11.83,11.83,0,0,0,.05-1.87c-.81.39-2,1-2,2S167.53,14,169.4,14a38,38,0,0,0,4.52-.23v2.7c-2.68.07-3.24.07-3.87.07-2.7,0-6.79-.09-6.79-3.33,0-2.41,2.79-3.82,4.54-4.68A1.22,1.22,0,0,0,166.66,8a4.66,4.66,0,0,0-3.24,1.94,18.73,18.73,0,0,1-2.07,2.65l-1.92-2a15.86,15.86,0,0,0,3.81-5.76h-3.09V2.41H164c.15-.66.22-1,.31-1.64l3,.17a15,15,0,0,1-.36,1.47Z"/><path class="cls-1" d="M2.57,24a15.45,15.45,0,0,0-1.09-1.91l2.72-.7A11.53,11.53,0,0,1,5.56,24h2.2a14.87,14.87,0,0,0-1-2.12l2.74-.63A14.71,14.71,0,0,1,10.66,24H12.3a15.47,15.47,0,0,0,1.08-2.68l2.9.63a14.54,14.54,0,0,1-1,2H17v4.45H14.69v1A19.86,19.86,0,0,1,11,31.55h6.45V34H10.3v2.58a1.69,1.69,0,0,1-1.75,1.85H4.66l-.45-2.61h2.6c.48,0,.64-.06.64-.69V34H.27V31.55H7.45v-.9h.71a5.16,5.16,0,0,0,1.67-.95H3V28.42H.7V24ZM14.3,26.33H3.4v1H14.3Z"/><path class="cls-1" d="M27.18,23v2.56a7.27,7.27,0,0,0-3,5.91c0,2.57,1.48,3.33,3.28,3.33,2.46,0,3.49-1.32,3.49-3.86A18.43,18.43,0,0,0,29.05,23l2.53-.81a8.19,8.19,0,0,0,5.22,5.4l-1.12,2.94a7.07,7.07,0,0,1-2.56-2,8.38,8.38,0,0,1,.4,2.79c0,3.35-1.19,6.29-5.92,6.29-5.71,0-6.2-4.18-6.2-5.69a9.33,9.33,0,0,1,2.38-6.14l-2.54.05V23Zm6.56-1.78a15.08,15.08,0,0,1,1.49,3.55l-1.44.65a15.24,15.24,0,0,0-1.42-3.61Zm2.48-.41a15.63,15.63,0,0,1,1.51,3.56L36.27,25a14.29,14.29,0,0,0-1.4-3.6Z"/><path class="cls-1" d="M40.61,36.83a48.94,48.94,0,0,0,2.72-10.09H41.06V24.06h2.63c.07-.66.09-1,.16-2l3,.11c-.11.9-.13,1.05-.25,1.91h4v2.68H46.14a88.94,88.94,0,0,1-2.63,11Zm9.45-4.32a1.8,1.8,0,0,0-.52,1.15c0,.79.72,1.06,3.1,1.06A31.65,31.65,0,0,0,56,34.56l.06,2.83c-.74,0-1.41,0-2.8,0-2.79,0-4-.2-5.11-.86a2.77,2.77,0,0,1-1.3-2.31,4.66,4.66,0,0,1,1-2.65Zm5.73-3c-.49,0-1.14-.07-2-.07a12,12,0,0,0-4.61.74l-1-2.4c2.29-.93,3.64-1.09,7.64-1.08Z"/><path class="cls-1" d="M64,23.07a35.69,35.69,0,0,0-.52,5.69c0,1.53.07,5.06,1.44,5.06.88,0,1.64-1.89,2.12-3.35l2.33,1.41c-.92,2.71-2.34,5.25-4.59,5.25-3.66,0-4.13-5.54-4.13-8.78,0-2.06.22-4.34.34-5.57Zm8.93,12.37c.11-2.92,0-8.17-3.08-10.69l2.31-1.52C74.51,25.48,76,27.86,76,35.3Z"/></g></g></svg>