<svg xmlns="http://www.w3.org/2000/svg" viewBox="0 0 234.44 17.72"><defs><style>.cls-1{fill:#00af84;}</style></defs><g id="レイヤー_2" data-name="レイヤー 2"><g id="レイヤー_2-2" data-name="レイヤー 2"><path class="cls-1" d="M7.69,16c-1,.48-1.82.81-3.06,1.3v-4.9H3.89c-.14,2.63-.78,3.94-2.36,5.33L0,15.56a3.72,3.72,0,0,0,1.82-3.17H.94V7.85H8v4.54H6.82V14c.29-.11,1.43-.65,1.61-.74L8.53,15a3,3,0,0,0,1.32-2.57H9V7.85h7.67v4.54H14.8v2.34c0,.23,0,.41.2.41.38,0,.45,0,.45-.3s0-1.23,0-1.43l2,.47c-.06,2-.11,3.71-1.57,3.71H14a1.15,1.15,0,0,1-1.31-1.24v-4H12c-.14,2.95-.93,4.08-3.15,5.29ZM3.29.56H5.82v1H8.26V3.76H7.6a9.07,9.07,0,0,1-.29,1.17h1V7.17h-8V4.93H1.71a6.91,6.91,0,0,0-.18-1.17H.81V1.57H3.29Zm.08,8.93v1.26H5.62V9.49Zm.32-5.73a10,10,0,0,1,.23,1.17H5.1a6.36,6.36,0,0,0,.21-1.17Zm8-3.2h2.55v1h2.68V3.76h-.66c-.09.33-.22.85-.31,1.17h1.41V7.17H8.73V4.93H9.94c0-.07-.11-.75-.2-1.17H8.8V1.57h2.89ZM11.5,9.49v1.26h2.74V9.49Zm.58-5.73c0,.2.16,1,.2,1.17h1.3a6,6,0,0,0,.21-1.17Z"/><path class="cls-1" d="M23.49,12.32a11.83,11.83,0,0,1-1.3,5.4L19.94,15.9a9.44,9.44,0,0,0,1.16-4Zm7.15-2.94h6.23c0,2.2-.36,6-1,7.08a2,2,0,0,1-1.84,1.11h-3l-.45-2.52,2.41.07a.58.58,0,0,0,.53-.28A12.09,12.09,0,0,0,34,11.47H21.31V1.15H36.53V3.44H30.64V4.3h5V5.94h-5v.87h5V8.5h-5ZM28.05,3.44h-4V4.3h4Zm0,2.5h-4v.87h4Zm0,2.56h-4v.88h4Zm-1.84,4A19.43,19.43,0,0,1,26.55,17l-2.39.15a21.32,21.32,0,0,0,.18-2.69,9.53,9.53,0,0,0-.17-2Zm3-.16a23,23,0,0,1,.77,4l-2.21.36a19.49,19.49,0,0,0-.6-4.2ZM32.4,12a10.55,10.55,0,0,1,.71,2.33L31,14.69a9.3,9.3,0,0,0-.74-2.46Z"/><path class="cls-1" d="M39.55,14a14.78,14.78,0,0,0,2.89-2.36H40.07V9.33h3.27V8.26h-3.4V5.89h1.68c0-.22-.17-1-.38-1.84h-1V1.67h3.06V.52h2.51V1.67h2.84V4.05h-.86c-.13.65-.2,1-.43,1.84h1.4V8.26h-3V9.33h2.84v2.34h-2a9.32,9.32,0,0,0,1.82,1.69l-1.23,2.25a9.92,9.92,0,0,1-1.38-1.8v3.84H43.34V14.08a12.39,12.39,0,0,1-2.7,2.72Zm4-10c.22,1,.29,1.41.36,1.84h1.25a15,15,0,0,0,.34-1.84ZM57,2.93A16.38,16.38,0,0,1,51.83,4V5.87H57V8.52H55.53v9.13H52.94V8.52H51.83v.7c0,5.06-1.57,7.49-2.18,8.43l-2.36-1.57a10.71,10.71,0,0,0,2-6.86V1.57c3.7-.18,5-.56,6.56-1.19Z"/><path class="cls-1" d="M60.28,1.13h7.29V7.18H62.8V17.65H60.28ZM62.8,2.84v.8h2.51v-.8Zm0,2v.73h2.51V4.83Zm.51,9.72,1,0V9.63h-.76V7.81H73V9.63h-.94v7.64h-2.3V16.11c-3.22.33-3.51.35-6.43.53Zm3.17-4.16h3.31V9.63H66.48Zm0,2h3.31v-.7H66.48Zm3.31,1.26H66.48v.83c1.08,0,2.23-.09,3.31-.18Zm-1-12.5h7.41V15.88a1.68,1.68,0,0,1-1.9,1.77H72.67L72.26,15h1.09c.27,0,.38-.07.38-.34V7.18H68.82Zm2.34,2.51h2.57v-.8H71.16Zm0,1.92h2.57V4.83H71.16Z"/><path class="cls-1" d="M84.46,1.8a42.87,42.87,0,0,0-.71,8.28,33.91,33.91,0,0,0,.49,6.43l-3,.2a34,34,0,0,1-.43-6.12,60.29,60.29,0,0,1,.63-9ZM89.1,9.67a3.82,3.82,0,0,0-.86,2c0,1.17,1.33,1.32,2.92,1.32.55,0,2.73,0,4.28-.22l.06,2.92a25,25,0,0,1-3.3.18c-3.82,0-6.61-.54-6.61-3.75a6,6,0,0,1,1-3.17Zm6.05-6.86V5.62h-9V2.81Z"/><path class="cls-1" d="M104.28,13.36c6.87,0,8.28-2.21,8.28-4.54a3,3,0,0,0-3.33-3.27c-1.5,0-3,.23-8.88,1.65l-.7-3.11c.84-.13,4.57-.78,5.33-.9a27.64,27.64,0,0,1,4.44-.47,5.81,5.81,0,0,1,6.22,6.07A6.44,6.44,0,0,1,111.37,15a18.52,18.52,0,0,1-6.19,1.13Z"/><path class="cls-1" d="M123.41,2.3A35.81,35.81,0,0,0,122.89,8c0,1.53.07,5.06,1.44,5.06.88,0,1.64-1.89,2.12-3.34l2.32,1.4c-.91,2.72-2.34,5.26-4.59,5.26-3.65,0-4.12-5.55-4.12-8.79,0-2,.22-4.34.34-5.56Zm8.93,12.37c.11-2.91,0-8.17-3.08-10.69l2.31-1.51c2.35,2.25,3.87,4.62,3.87,12.06Z"/><path class="cls-1" d="M155.06,4.84c-.56,0-1.07,0-1.46,0a8.59,8.59,0,0,0-2.16.23C148.88,5.78,146,8.43,146,11c0,1.7,1.35,2.69,6,2.69.85,0,1.26,0,1.62-.06l-.4,3.1a23.27,23.27,0,0,1-5.81-.54c-3.8-.95-4.34-3.62-4.34-5,0-2.45,1.58-4.54,3.85-6.07-1.6.12-5.69.48-7.06.66l-.16-3.09c1.17,0,1.71-.06,3.8-.2C147.3,2.2,150.79,2.09,155,2Z"/><path class="cls-1" d="M161,3.21a13.08,13.08,0,0,0-1.1-1.91l2.72-.71A11.45,11.45,0,0,1,164,3.21h2.2a14.42,14.42,0,0,0-1-2.13l2.74-.63a14.78,14.78,0,0,1,1.17,2.76h1.63A15.24,15.24,0,0,0,171.8.52l2.89.63a15.18,15.18,0,0,1-1,2.06h1.73V7.65h-2.29v1a21.08,21.08,0,0,1-3.73,2.17h6.45v2.44h-7.11v2.58A1.68,1.68,0,0,1,167,17.66h-3.89l-.45-2.61h2.59c.49,0,.65-.05.65-.68V13.23h-7.18V10.79h7.18V9.88h.7a5.1,5.1,0,0,0,1.68-1h-6.83V7.65h-2.3V3.21Zm11.72,2.35H161.82v1h10.89Z"/><path class="cls-1" d="M185.6,2.2V4.75a7.28,7.28,0,0,0-3,5.91c0,2.57,1.47,3.33,3.27,3.33,2.47,0,3.5-1.31,3.5-3.85a18.36,18.36,0,0,0-1.86-7.94L190,1.39a8.25,8.25,0,0,0,5.22,5.4L194.1,9.72a7,7,0,0,1-2.56-2,8.61,8.61,0,0,1,.4,2.79c0,3.35-1.19,6.28-5.93,6.28-5.7,0-6.19-4.18-6.19-5.69A9.33,9.33,0,0,1,182.2,5l-2.54,0V2.2ZM192.15.41A15.09,15.09,0,0,1,193.65,4l-1.44.65A15,15,0,0,0,190.79,1ZM194.64,0a15.63,15.63,0,0,1,1.51,3.56l-1.46.64a14.36,14.36,0,0,0-1.4-3.61Z"/><path class="cls-1" d="M199,16.06A49.34,49.34,0,0,0,201.75,6h-2.27V3.29h2.62c.08-.66.1-1,.17-2l3,.11c-.11.9-.13,1-.25,1.9h4V6h-4.4a85.26,85.26,0,0,1-2.63,10.94Zm9.45-4.32a1.82,1.82,0,0,0-.52,1.15c0,.79.72,1.06,3.09,1.06a31.71,31.71,0,0,0,3.39-.16l.05,2.83c-.74,0-1.4.05-2.79.05-2.79,0-4-.2-5.11-.86a2.77,2.77,0,0,1-1.3-2.31,4.67,4.67,0,0,1,1-2.64Zm5.72-3c-.48,0-1.13-.08-2-.08a12,12,0,0,0-4.61.74l-1-2.39c2.29-.94,3.64-1.1,7.63-1.08Z"/><path class="cls-1" d="M222.41,2.3A35.81,35.81,0,0,0,221.89,8c0,1.53.07,5.06,1.44,5.06.88,0,1.64-1.89,2.12-3.34l2.32,1.4c-.91,2.72-2.34,5.26-4.59,5.26-3.65,0-4.12-5.55-4.12-8.79,0-2,.22-4.34.34-5.56Zm8.93,12.37c.11-2.91,0-8.17-3.08-10.69l2.31-1.51c2.35,2.25,3.87,4.62,3.87,12.06Z"/></g></g></svg>