<svg xmlns="http://www.w3.org/2000/svg" viewBox="0 0 459 29.46"><defs><style>.cls-1{fill:#fff;}</style></defs><g id="レイヤー_2" data-name="レイヤー 2"><g id="レイヤー_2-2" data-name="レイヤー 2"><path class="cls-1" d="M5.22,20.4a23.33,23.33,0,0,1-2.64,9.06L0,27.18a18.13,18.13,0,0,0,2.22-7.26ZM26.76,5H16.26V7.08h9.27V9.45H16.26v2.13h9.27v2.31H16.26V16H27.54c-.09,4.83-.57,10-1.47,11.73a2.81,2.81,0,0,1-2.67,1.59H18.78L18,26l4.35.15a1.1,1.1,0,0,0,1.14-.9c.51-1.35.75-5.67.81-6.63H2.37V2.22H26.76ZM5.34,5V7.08h8.07V5Zm0,4.5v2.13h8.07V9.45Zm0,4.44V16h8.07V13.89Zm4.29,7A28.69,28.69,0,0,1,10.47,28l-3.21.24a29.61,29.61,0,0,0-.57-7.35Zm5.1-.42a26.52,26.52,0,0,1,1.77,6.06l-3.09.66a29,29,0,0,0-1.53-6.42ZM20.34,20a20.8,20.8,0,0,1,1.71,4.11l-2.91.81a25.07,25.07,0,0,0-1.74-4.5Z"/><path class="cls-1" d="M64.38,11.43v2.73H58.32a19.54,19.54,0,0,0,6.45,4.11l-1.65,3a21.8,21.8,0,0,1-4.23-2.52c-.42,10.14-2.13,10.56-4.8,10.56H50.28l-.69-3h3.75c1.17,0,1.59-.42,1.74-.93A27.64,27.64,0,0,0,55.74,20H49.38c-1.29,7.26-6.06,8.85-11.28,9.42l-1.2-2.7c5.73-.42,8.55-2.16,9.36-6.72H42.42v-1.5a26.94,26.94,0,0,1-4.62,2.79l-1.86-2.82a18,18,0,0,0,7-4.35H36.18V11.43h8.91a18.51,18.51,0,0,0,1.59-3.27H37.5V5.49h5.13A16.61,16.61,0,0,0,40.47,2.4L43.2,1A19.6,19.6,0,0,1,46,5.49h1.56A26.94,26.94,0,0,0,48.42,1l3.3.21c-.39,2-.66,2.94-1,4.29h4.08A40.19,40.19,0,0,0,57.39,1l2.73,1.35a26.33,26.33,0,0,1-1.89,3.15h4.89V8.16H54.27a10.23,10.23,0,0,0,1.65,3.27Zm-7.26,5.85a20.19,20.19,0,0,1-2.88-3.12H46.71a22.27,22.27,0,0,1-2.79,3.12Zm-4.68-5.85A22.29,22.29,0,0,1,51,8.16H49.8a30.23,30.23,0,0,1-1.38,3.27Z"/><path class="cls-1" d="M86,24.42c3.18-.3,9.87-1.38,9.87-9.42,0-3.33-1.38-8.28-8.1-8.61-.93,13.35-4.92,18.9-9.06,18.9-3.48,0-5.7-4-5.7-8.61,0-8.43,6.24-13.47,14-13.47,9.33,0,12.45,6.24,12.45,11.88,0,11.34-10.17,12.36-12.3,12.57Zm-9.75-7.65c0,1.74.63,4.92,2.58,4.92,1.14,0,2-1,2.7-2.34,2-3.72,2.61-8.31,3-12.81C79.14,7.53,76.29,11.82,76.29,16.77Z"/><path class="cls-1" d="M112,5.07c-1.23.18-2.13.24-3.42.33l-.48-3a40.19,40.19,0,0,0,9.12-1.35l1,2.67a20.68,20.68,0,0,1-3.36.9v3.9h3.36v2.85H114.9v.15a20.35,20.35,0,0,0,3.9,5.37L117.63,20a16.47,16.47,0,0,1-2.73-4.68v14H112V16.92a23.55,23.55,0,0,1-3,6.66L107.58,20a25.71,25.71,0,0,0,4.26-8.61h-3.72V8.52H112Zm13.8-.57c-3.54.15-5,.15-6.42.15l-.48-2.37c1.59,0,11,0,15.72-1.26l.87,2.52a40.38,40.38,0,0,1-6.9.81V5.91h7.77V8.34h-7.77v1.5h6.84V20.16h-6.84v1.71h7.17v2.4h-7.17V26h7.77V28.5H117.24V26h8.58V24.27h-7.56v-2.4h7.56V20.16h-6.75V9.84h6.75V8.34h-7.56V5.91h7.56Zm-4,7.56V14h4V12.06Zm0,4v1.89h4V16Zm6.81-4V14h4.14V12.06Zm0,4v1.89h4.14V16Z"/><path class="cls-1" d="M149.7,10.14a18.29,18.29,0,0,1-3.9,5.1l-2.1-1.8a16.33,16.33,0,0,0,4.44-4.86h-3.93V6.06h5.49v-5h2.82v5h5.16V8.58h-4.05a16.85,16.85,0,0,0,4.2,4.05l-1.53,2.22a15.29,15.29,0,0,1-3.78-4.65v5.19H149.7ZM155.1,27a17.71,17.71,0,0,1-3.75-4.32,14,14,0,0,1-5.67,6.54l-1.8-2.37c2.16-1.38,4.44-3.21,5.25-6.27h-4.92V17.88h5.37c.06-.54.09-1,.12-2h2.82a16.13,16.13,0,0,1-.12,2h5.28v2.67h-4.59a24.63,24.63,0,0,0,4,4.26Zm-8-25.89c.33.81,1,2.91,1.29,3.72l-2.67.75a27.23,27.23,0,0,0-1.2-3.6Zm10.47.51c-.15.39-.45,1.26-.81,2.13-.15.36-.6,1.38-.81,1.8L153.39,5a22.12,22.12,0,0,0,1.32-3.87Zm-1.35,25.26a19.41,19.41,0,0,0,6.24-3.69h-3.33V7h4.2a21.67,21.67,0,0,0,.45-2.19h-5.61V2.07h14.19V4.8h-5.46A16.48,16.48,0,0,1,166.38,7h5.19V23.16h-3.21a20.28,20.28,0,0,0,4.44,3.63l-1.68,2.31a18.31,18.31,0,0,1-4.92-4.05l2.13-1.89h-5.49l1.8,1.86a22.37,22.37,0,0,1-6.6,4.11ZM162.12,9.6v1.89h6.48V9.6Zm0,4.41v1.92h6.48V14Zm0,4.35v2.16h6.48V18.36Z"/><path class="cls-1" d="M187.38,3.15a61.25,61.25,0,0,0-1.29,13.68A52.34,52.34,0,0,0,187,27.45l-3.57.27a60.47,60.47,0,0,1-.75-10.35,75.6,75.6,0,0,1,1.2-14.49Zm7.68,12.93A7.17,7.17,0,0,0,193.59,20c0,2.52,3,2.79,5.85,2.79a63.27,63.27,0,0,0,6.93-.36v3.48c-1.62.12-3.42.27-5.55.27-4.92,0-10.35-.48-10.35-5.79A9.88,9.88,0,0,1,192,15.21ZM205.77,5.16v3.3h-14.4V5.16Z"/><path class="cls-1" d="M225.21,23c3.63,0,14.28-.06,14.28-8.43,0-2.76-1.32-6.09-6.66-6.09-2.73,0-7.17.75-15,2.73L217,7.5l8.07-1.38a46.59,46.59,0,0,1,8-.93c6.78,0,10,4.38,10,9.33,0,2.37-.72,7.53-7.14,10.11a28.1,28.1,0,0,1-9.75,1.65Z"/><path class="cls-1" d="M258.06,4a58.65,58.65,0,0,0-.72,8.91c0,3.9.27,10.32,3.3,10.32a2.82,2.82,0,0,0,2.16-1.47,19.76,19.76,0,0,0,2.37-4.86l2.73,1.62a18.92,18.92,0,0,1-4,7.05,4.8,4.8,0,0,1-3.45,1.47c-5.31,0-6.42-7.77-6.42-14.49,0-2.94.27-6.18.51-8.88Zm17.28,20.19c.06-5.31.18-13.26-5.31-17.76l2.64-1.89c4.74,4.2,6.33,8.49,6.33,19.5Z"/><path class="cls-1" d="M314.7,7.23c-1.14-.06-2.07-.12-2.88-.12a9.82,9.82,0,0,0-3.18.36c-4.26,1.32-9.84,5.94-9.84,10.83,0,3.75,3,4.74,5.88,5.28a37.88,37.88,0,0,0,7.44.45l-.6,3.6c-6.06-.18-16.2-.51-16.2-9.12,0-5.76,5.4-9.57,8-11.19-3.18.21-10.86.75-13.65,1.08l-.24-3.63c1.92,0,10.41-.51,12.12-.6,4.59-.21,8-.27,13.05-.36Z"/><path class="cls-1" d="M347.55,11v2.49a32.76,32.76,0,0,1-7.65,4.8v.24h12.6v2.94H339.9v5.37a2.54,2.54,0,0,1-2.46,2.49h-5.88L331,26.19h4.83c.84,0,.84-.42.84-1V21.51H324.09V18.57h12.57V16.23H338a13.76,13.76,0,0,0,4.44-2.37H329.07V11ZM328.8,5.94A26.6,26.6,0,0,0,327,2.25l2.91-1.08a18,18,0,0,1,2.25,4.5l-.69.27h6a23.69,23.69,0,0,0-2-3.87l3-1.14a24.31,24.31,0,0,1,2.28,4.68l-1,.33h4.86a34,34,0,0,0,2-4.92L350,2a29.78,29.78,0,0,1-2,3.9h3.81v6.87h-3v-4H327.93v4h-3V5.94Z"/><path class="cls-1" d="M371.7,4.17V7.23c-1.35,1-5.91,4.44-5.91,10.74,0,5,3.36,6.45,6.48,6.45,4.35,0,7-2.19,7-7.5a26.23,26.23,0,0,0-2.61-11.37c-.54-1-.72-1.41-1-2l3.09-1a14.64,14.64,0,0,0,8.94,9.24l-1.26,3.42a12,12,0,0,1-5.1-4,20.62,20.62,0,0,1,1,6.15c0,5.91-2.58,10.35-9.9,10.35-9.18,0-9.84-7.32-9.84-9.3a14.89,14.89,0,0,1,5-11l-5.4.06V4.17Zm11-3.24a24.37,24.37,0,0,1,2.49,5.94l-2.22,1a25,25,0,0,0-2.34-6ZM387,0a25.49,25.49,0,0,1,2.49,5.91l-2.25,1a23.11,23.11,0,0,0-2.34-6Z"/><path class="cls-1" d="M397.23,27.06c2.82-5.94,4.5-14.55,4.95-17.82H398V6.09h4.59c.21-2.07.24-2.49.33-3.78l3.57.12c-.21,1.86-.3,2.43-.48,3.66h7.74V9.24h-8.19c-1.5,8.13-3.21,14.85-4.92,18.93Zm14.55-7.56a4.69,4.69,0,0,0-1,2.49c0,2.19,2.88,2.43,6.51,2.43,1,0,3.66-.06,5.61-.24l0,3.36c-1.89,0-3.78.06-5.67.06-3.9,0-5.7-.33-7.23-1.14a4.45,4.45,0,0,1-2.4-4,7.69,7.69,0,0,1,1.47-4.14Zm10.56-5.91c-.84,0-1.74-.09-3.21-.09a21.84,21.84,0,0,0-8,1.26L410,11.91c3-1.17,5.52-1.77,12.33-1.65Z"/><path class="cls-1" d="M438.06,4a58.65,58.65,0,0,0-.72,8.91c0,3.9.27,10.32,3.3,10.32a2.82,2.82,0,0,0,2.16-1.47,19.76,19.76,0,0,0,2.37-4.86l2.73,1.62a18.92,18.92,0,0,1-4,7.05,4.8,4.8,0,0,1-3.45,1.47c-5.31,0-6.42-7.77-6.42-14.49,0-2.94.27-6.18.51-8.88Zm17.28,20.19c.06-5.31.18-13.26-5.31-17.76l2.64-1.89c4.74,4.2,6.33,8.49,6.33,19.5Z"/></g></g></svg>