<svg xmlns="http://www.w3.org/2000/svg" viewBox="0 0 155.06 38.29"><defs><style>.cls-1{fill:#00af84;}</style></defs><g id="レイヤー_2" data-name="レイヤー 2"><g id="レイヤー_2-2" data-name="レイヤー 2"><path class="cls-1" d="M7.69,15.61c-1,.49-1.82.81-3.06,1.3V12H3.89c-.14,2.63-.78,3.94-2.36,5.33L0,15.18A3.7,3.7,0,0,0,1.82,12H.94V7.47H8V12H6.82v1.58c.29-.1,1.43-.64,1.61-.73l.1,1.72A3,3,0,0,0,9.85,12H9V7.47h7.67V12H14.8v2.34c0,.23,0,.41.2.41.38,0,.45,0,.45-.3s0-1.23,0-1.42l2,.46c-.05,2-.11,3.71-1.57,3.71H14A1.15,1.15,0,0,1,12.64,16V12H12c-.14,3-.93,4.09-3.15,5.29ZM3.29.18H5.82v1H8.26V3.38H7.6a9.71,9.71,0,0,1-.29,1.18h1V6.79h-8V4.56H1.71a6.88,6.88,0,0,0-.18-1.18H.81V1.19H3.29Zm.08,8.93v1.26H5.62V9.11Zm.32-5.73a10.15,10.15,0,0,1,.23,1.18H5.1a6.63,6.63,0,0,0,.21-1.18Zm8-3.2h2.55v1h2.68V3.38h-.66c-.09.33-.22.85-.31,1.18h1.41V6.79H8.73V4.56H9.94c0-.08-.11-.76-.2-1.18H8.8V1.19h2.89ZM11.5,9.11v1.26h2.74V9.11Zm.58-5.73c0,.2.16,1,.2,1.18h1.3a6,6,0,0,0,.21-1.18Z"/><path class="cls-1" d="M23.49,11.94a11.83,11.83,0,0,1-1.3,5.4l-2.25-1.82a9.44,9.44,0,0,0,1.16-4ZM30.64,9h6.23c0,2.2-.36,6.05-1,7.08a2,2,0,0,1-1.84,1.12h-3l-.45-2.53,2.41.08a.59.59,0,0,0,.53-.29A12.09,12.09,0,0,0,34,11.09H21.31V.77H36.53V3.06H30.64v.86h5V5.56h-5v.87h5V8.12h-5ZM28.05,3.06h-4v.86h4Zm0,2.5h-4v.87h4Zm0,2.56h-4V9h4Zm-1.84,4a19.5,19.5,0,0,1,.34,4.58l-2.39.14a21.13,21.13,0,0,0,.18-2.68,9.64,9.64,0,0,0-.17-2Zm3-.16a23.23,23.23,0,0,1,.77,4l-2.21.36a19.27,19.27,0,0,0-.6-4.19Zm3.2-.32a10.3,10.3,0,0,1,.71,2.32L31,14.31a9.41,9.41,0,0,0-.74-2.46Z"/><path class="cls-1" d="M39.55,13.65a14.78,14.78,0,0,0,2.89-2.36H40.07V9h3.27V7.89h-3.4V5.51h1.68c0-.22-.17-1-.38-1.84h-1V1.3h3.06V.14h2.51V1.3h2.84V3.67h-.86c-.13.65-.2,1-.43,1.84h1.4V7.89h-3V9h2.84v2.34h-2A9.32,9.32,0,0,0,48.39,13l-1.23,2.25a9.59,9.59,0,0,1-1.38-1.8v3.84H43.34V13.7a12.39,12.39,0,0,1-2.7,2.72Zm4-10c.22,1,.29,1.41.36,1.84h1.25a14.65,14.65,0,0,0,.34-1.84ZM57,2.56a17,17,0,0,1-5.13,1.08V5.49H57V8.14H55.53v9.13H52.94V8.14H51.83v.7c0,5.06-1.57,7.49-2.18,8.43L47.29,15.7a10.69,10.69,0,0,0,2-6.86V1.19C53,1,54.33.63,55.86,0Z"/><path class="cls-1" d="M60.28.76h7.29V6.81H62.8V17.27H60.28ZM62.8,2.47v.79h2.51V2.47Zm0,2v.74h2.51V4.45Zm.51,9.72,1,0V9.25h-.76V7.44H73V9.25h-.94v7.64h-2.3V15.74c-3.22.32-3.51.34-6.43.52ZM66.48,10h3.31V9.25H66.48Zm0,2h3.31v-.7H66.48Zm3.31,1.26H66.48v.83c1.08,0,2.23-.09,3.31-.18ZM68.82.76h7.42V15.5a1.68,1.68,0,0,1-1.91,1.77H72.67l-.41-2.67h1.09c.27,0,.38-.07.38-.34V6.81H68.82Zm2.34,2.5h2.57V2.47H71.16Zm0,1.93h2.57V4.45H71.16Z"/><path class="cls-1" d="M84.46,1.42a43.11,43.11,0,0,0-.71,8.29,33.67,33.67,0,0,0,.49,6.42l-3,.2a32.56,32.56,0,0,1-.44-6.12,60.15,60.15,0,0,1,.63-9ZM89.1,9.29a3.81,3.81,0,0,0-.86,2c0,1.17,1.33,1.31,2.92,1.31.55,0,2.73,0,4.28-.22l.06,2.92a25,25,0,0,1-3.3.18c-3.82,0-6.61-.54-6.61-3.74a6,6,0,0,1,1-3.17Zm6.05-6.86V5.24h-9V2.43Z"/><path class="cls-1" d="M104.28,13c6.87,0,8.28-2.21,8.28-4.54a3,3,0,0,0-3.33-3.27c-1.5,0-3,.23-8.88,1.65l-.7-3.11c.85-.13,4.57-.78,5.33-.9a28.83,28.83,0,0,1,4.44-.47,5.81,5.81,0,0,1,6.22,6.07,6.43,6.43,0,0,1-4.27,6.23,18.22,18.22,0,0,1-6.19,1.13Z"/><path class="cls-1" d="M123.41,1.93a35.69,35.69,0,0,0-.52,5.69c0,1.53.07,5.06,1.44,5.06.88,0,1.64-1.89,2.12-3.35l2.32,1.4c-.91,2.72-2.34,5.26-4.59,5.26-3.65,0-4.12-5.55-4.12-8.79,0-2,.22-4.34.34-5.56Zm8.93,12.37c.11-2.92,0-8.18-3.08-10.7l2.31-1.51c2.35,2.25,3.87,4.63,3.87,12.06Z"/><path class="cls-1" d="M155.06,4.46c-.56,0-1.06,0-1.46,0a8.18,8.18,0,0,0-2.16.24c-2.56.75-5.44,3.4-5.44,5.94,0,1.69,1.35,2.68,6,2.68.85,0,1.26,0,1.62,0l-.4,3.09a23.27,23.27,0,0,1-5.81-.54c-3.8-.95-4.34-3.62-4.34-5,0-2.45,1.58-4.54,3.85-6.07-1.6.13-5.69.49-7,.67l-.17-3.1c1.17,0,1.71-.06,3.8-.2,3.84-.25,7.33-.36,11.51-.49Z"/><path class="cls-1" d="M2.59,23.83A14.74,14.74,0,0,0,1.5,21.92l2.71-.7a11.2,11.2,0,0,1,1.37,2.61h2.2a14.42,14.42,0,0,0-1-2.13l2.74-.63a14.78,14.78,0,0,1,1.17,2.76h1.64a15.48,15.48,0,0,0,1.08-2.69l2.89.63a14.63,14.63,0,0,1-1,2.06H17v4.44H14.71v1A21.81,21.81,0,0,1,11,31.41h6.45v2.45H10.32v2.57a1.69,1.69,0,0,1-1.75,1.86H4.68l-.45-2.62H6.82c.49,0,.65-.05.65-.68V33.86H.29V31.41H7.47v-.9h.7a5.31,5.31,0,0,0,1.68-1H3V28.27H.72V23.83Zm11.72,2.36H3.42v1H14.31Z"/><path class="cls-1" d="M27.2,22.82v2.56a7.22,7.22,0,0,0-3,5.9c0,2.58,1.47,3.33,3.27,3.33,2.47,0,3.5-1.31,3.5-3.85a18.4,18.4,0,0,0-1.86-7.94L31.59,22a8.21,8.21,0,0,0,5.23,5.4L35.7,30.34a7,7,0,0,1-2.56-2,8.61,8.61,0,0,1,.4,2.79c0,3.35-1.19,6.28-5.93,6.28-5.7,0-6.19-4.17-6.19-5.69a9.33,9.33,0,0,1,2.38-6.14l-2.54.06V22.82ZM33.75,21a14.87,14.87,0,0,1,1.5,3.54l-1.44.65a15.17,15.17,0,0,0-1.42-3.6Zm2.49-.42a15.52,15.52,0,0,1,1.51,3.57l-1.46.63a14.15,14.15,0,0,0-1.4-3.6Z"/><path class="cls-1" d="M40.63,36.68A48.62,48.62,0,0,0,43.34,26.6H41.08V23.92h2.63c.07-.67.09-1,.16-2l3,.11c-.11.9-.13,1-.25,1.91h4V26.6h-4.4a87.69,87.69,0,0,1-2.62,10.95Zm9.45-4.32a1.83,1.83,0,0,0-.52,1.15c0,.8.72,1.07,3.09,1.07A29.86,29.86,0,0,0,56,34.41l.05,2.83c-.74,0-1.4,0-2.79,0-2.79,0-4-.19-5.11-.86a2.75,2.75,0,0,1-1.3-2.3,4.67,4.67,0,0,1,1-2.65Zm5.73-2.95c-.49,0-1.14-.07-2-.07a12,12,0,0,0-4.61.73l-1-2.39c2.29-.94,3.64-1.1,7.64-1.08Z"/><path class="cls-1" d="M64,22.93a35.69,35.69,0,0,0-.52,5.69c0,1.53.07,5.06,1.44,5.06.88,0,1.64-1.89,2.12-3.35l2.33,1.4C68.46,34.45,67,37,64.78,37c-3.65,0-4.12-5.55-4.12-8.79,0-2.05.22-4.34.34-5.56ZM72.94,35.3c.11-2.92,0-8.18-3.08-10.7l2.31-1.51C74.52,25.34,76,27.72,76,35.15Z"/></g></g></svg>