<svg xmlns="http://www.w3.org/2000/svg" viewBox="0 0 254.09 17.77"><defs><style>.cls-1{fill:#00af84;}</style></defs><g id="レイヤー_2" data-name="レイヤー 2"><g id="レイヤー_2-2" data-name="レイヤー 2"><path class="cls-1" d="M3.55,12.32a11.83,11.83,0,0,1-1.3,5.4L0,15.9a9.38,9.38,0,0,0,1.15-4ZM10.7,9.38h6.22c0,2.2-.35,6-1,7.08a2,2,0,0,1-1.83,1.11h-3l-.45-2.52,2.41.07a.57.57,0,0,0,.52-.28A11.6,11.6,0,0,0,14,11.47H1.37V1.15H16.58V3.44H10.7V4.3h5V5.94h-5v.87h5V8.5h-5ZM8.1,3.44h-4V4.3h4Zm0,2.5h-4v.87h4Zm0,2.56h-4v.88h4Zm-1.83,4A19.43,19.43,0,0,1,6.61,17l-2.4.15a19.56,19.56,0,0,0,.18-2.69,9.72,9.72,0,0,0-.16-2Zm3-.16a23.14,23.14,0,0,1,.78,4l-2.22.36a19,19,0,0,0-.59-4.2ZM12.46,12a10.54,10.54,0,0,1,.7,2.33l-2.09.39a8.57,8.57,0,0,0-.74-2.46Z"/><path class="cls-1" d="M37.08,6.28V8.7h-2.8a10.43,10.43,0,0,0,3.11,2L36,13.23a12.24,12.24,0,0,1-1.82-1.15c-.38,4.38-.81,5.53-2.66,5.53H28.64L28.1,15h2.2a.75.75,0,0,0,.81-.43,10.66,10.66,0,0,0,.3-2.25H28.6c-.55,3.22-2.79,5-7.36,5.45l-1-2.48c3.78-.18,5.31-1.48,5.61-3H23.56v-.54a13.16,13.16,0,0,1-2.32,1.42L19.8,10.84A11.05,11.05,0,0,0,23.17,8.7H19.94V6.28h5.21a8,8,0,0,0,.61-1.17H20.63V2.75H23a11.45,11.45,0,0,0-1-1.67L24.59.45a15.7,15.7,0,0,1,1.3,2.3h.7A12.62,12.62,0,0,0,27,.4l2.83.16c-.13.61-.22,1.11-.5,2.19H31A13.08,13.08,0,0,0,32.13.45L35,1.17A11.15,11.15,0,0,1,34,2.75h2.4V5.11H31.68a6,6,0,0,0,.56,1.17ZM31.88,10c-.43-.5-.63-.75-1-1.27H26.61a15.64,15.64,0,0,1-1,1.27ZM29.45,6.28A11.91,11.91,0,0,1,29,5.11h-.45A12.5,12.5,0,0,1,28,6.28Z"/><path class="cls-1" d="M48.06,14c2.38-.18,5.28-1.22,5.28-5.16,0-3.14-1.91-4.22-3.73-4.4,0,1.12-.68,10.86-5.58,10.86-2.67,0-3.76-2.95-3.76-5.4,0-5.31,4-8.19,8.48-8.19C54,1.66,56.36,5,56.36,8.91a7.84,7.84,0,0,1-2.52,6A9,9,0,0,1,49,16.73Zm-5-4c0,.61.18,2.23,1.12,2.23s2.21-2.25,2.7-7.59A5.27,5.27,0,0,0,43,9.92Z"/><path class="cls-1" d="M66.13,10.51l-.91,2a11.14,11.14,0,0,1-1-1.8v7H61.72V11.72a16.69,16.69,0,0,1-1.53,3.35l-.95-3.53a12.72,12.72,0,0,0,2.25-4H59.62V5.06h2.1V3.55c-1,.09-1.33.09-1.82.11l-.28-2.44A23.19,23.19,0,0,0,65.13.5l.7,2.4a9,9,0,0,1-1.66.36v1.8h1.46V3.58h4.23V3c-1.73,0-2.65,0-3.47,0l-.31-1.88A61.09,61.09,0,0,0,75.73.56l.58,2c-.87.13-2,.23-4,.34v.7h4.3v2h-4.3v.63h3.8V12.1h-3.8v.68h4v1.73h-4v.72h4.36v2H65.09v-2h4.77v-.72H65.77V12.78h4.09V12.1H66.13Zm0-4.3h3.73V5.58H65.63v2H64.19a13,13,0,0,0,1.94,2.67Zm2.34,1.6v.78h1.39V7.81Zm0,2v.79h1.39V9.76Zm3.82-1.95v.78h1.39V7.81Zm0,2v.79h1.39V9.76Z"/><path class="cls-1" d="M82.51,7.51a9.11,9.11,0,0,1-2,2l-1.4-1.87a10.54,10.54,0,0,0,2.34-1.73h-2V3.69h3.09V.59h2.36v3.1h2.9V5.94H85.83a8.19,8.19,0,0,0,2.25,1.64L86.8,9.47a7.92,7.92,0,0,1-1.93-2V9.15H82.51ZM86,16.8a10.59,10.59,0,0,1-2.2-2.49,9.6,9.6,0,0,1-3,3.46l-1.6-2.23A6.69,6.69,0,0,0,82,12.71H79.42V10.35h3.06c0-.25,0-.47,0-.92h2.36c0,.24,0,.45,0,.92h2.93v2.36H85.29a7.56,7.56,0,0,0,2.3,2l-.63.83a9.72,9.72,0,0,0,3.28-1.62H88.42V4.38h2.25c.11-.49.13-.53.2-.92h-3V1.08h8.48V3.46h-2.9c-.15.54-.16.57-.27.92h2.72v9.54H94a8.49,8.49,0,0,0,2.7,1.46L95.55,17.7a12.4,12.4,0,0,1-3.37-2.34l1.41-1.44H90.65L92,15.38a12.34,12.34,0,0,1-4,2.28l-1.15-2ZM81.45.7A11.37,11.37,0,0,1,82.35,3l-2,.59a14.89,14.89,0,0,0-.92-2.16Zm6.39.52A15.22,15.22,0,0,1,87,3.62L85,3A10.05,10.05,0,0,0,85.79.7Zm3,5v.85h2.5V6.21Zm0,2.45v.9h2.5v-.9Zm0,2.43V12h2.5v-.88Z"/><path class="cls-1" d="M104.11,1.8a44.11,44.11,0,0,0-.7,8.28,33.91,33.91,0,0,0,.49,6.43l-3,.2a34,34,0,0,1-.43-6.12,60.29,60.29,0,0,1,.63-9Zm4.65,7.87a3.85,3.85,0,0,0-.87,2c0,1.17,1.34,1.32,2.92,1.32.56,0,2.74,0,4.29-.22l.05,2.92a24.74,24.74,0,0,1-3.29.18c-3.82,0-6.61-.54-6.61-3.75a6,6,0,0,1,1-3.17Zm6-6.86V5.62h-9V2.81Z"/><path class="cls-1" d="M123.93,13.36c6.88,0,8.28-2.21,8.28-4.54a3,3,0,0,0-3.33-3.27c-1.49,0-3,.23-8.87,1.65l-.71-3.11c.85-.13,4.58-.78,5.33-.9a27.89,27.89,0,0,1,4.45-.47,5.8,5.8,0,0,1,6.21,6.07A6.43,6.43,0,0,1,131,15a18.56,18.56,0,0,1-6.2,1.13Z"/><path class="cls-1" d="M143.07,2.3A35.61,35.61,0,0,0,142.54,8c0,1.53.08,5.06,1.44,5.06.89,0,1.64-1.89,2.13-3.34l2.32,1.4c-.92,2.72-2.34,5.26-4.59,5.26-3.66,0-4.12-5.55-4.12-8.79,0-2,.21-4.34.34-5.56ZM152,14.67c.1-2.91,0-8.17-3.08-10.69l2.3-1.51c2.36,2.25,3.87,4.62,3.87,12.06Z"/><path class="cls-1" d="M174.71,4.84c-.55,0-1.06,0-1.46,0a8.64,8.64,0,0,0-2.16.23c-2.55.76-5.43,3.41-5.43,5.94,0,1.7,1.35,2.69,6,2.69.84,0,1.26,0,1.62-.06l-.4,3.1a23.36,23.36,0,0,1-5.82-.54c-3.79-.95-4.34-3.62-4.34-5,0-2.45,1.59-4.54,3.86-6.07-1.6.12-5.69.48-7.06.66l-.16-3.09c1.17,0,1.71-.06,3.8-.2,3.83-.25,7.33-.36,11.5-.49Z"/><path class="cls-1" d="M180.65,3.21a14.06,14.06,0,0,0-1.1-1.91l2.72-.71a11.45,11.45,0,0,1,1.37,2.62h2.19a13.3,13.3,0,0,0-1-2.13l2.73-.63a14.14,14.14,0,0,1,1.17,2.76h1.64A15,15,0,0,0,191.45.52l2.9.63a15.18,15.18,0,0,1-1,2.06h1.72V7.65h-2.28v1A21.08,21.08,0,0,1,189,10.79h6.45v2.44h-7.12v2.58a1.67,1.67,0,0,1-1.74,1.85h-3.89l-.45-2.61h2.59c.49,0,.65-.05.65-.68V13.23h-7.19V10.79h7.19V9.88h.7a5.1,5.1,0,0,0,1.68-1h-6.83V7.65h-2.3V3.21Zm11.72,2.35H181.48v1h10.89Z"/><path class="cls-1" d="M205.26,2.2V4.75a7.27,7.27,0,0,0-3,5.91c0,2.57,1.48,3.33,3.28,3.33C208,14,209,12.68,209,10.14a18.35,18.35,0,0,0-1.85-7.94l2.52-.81a8.23,8.23,0,0,0,5.22,5.4l-1.12,2.93a6.83,6.83,0,0,1-2.55-2,8.69,8.69,0,0,1,.39,2.79c0,3.35-1.18,6.28-5.92,6.28-5.71,0-6.19-4.18-6.19-5.69A9.37,9.37,0,0,1,201.85,5l-2.54,0V2.2ZM211.81.41A15,15,0,0,1,213.3,4l-1.44.65A14.6,14.6,0,0,0,210.44,1ZM214.29,0a15.22,15.22,0,0,1,1.52,3.56l-1.46.64A14,14,0,0,0,212.94.59Z"/><path class="cls-1" d="M218.68,16.06A48.08,48.08,0,0,0,221.4,6h-2.27V3.29h2.63c.07-.66.09-1,.16-2l3,.11c-.1.9-.12,1-.25,1.9h4V6h-4.39a85.26,85.26,0,0,1-2.63,10.94Zm9.45-4.32a1.88,1.88,0,0,0-.52,1.15c0,.79.72,1.06,3.1,1.06a31.65,31.65,0,0,0,3.38-.16l.06,2.83c-.74,0-1.41.05-2.79.05-2.79,0-4-.2-5.12-.86A2.78,2.78,0,0,1,225,13.5a4.6,4.6,0,0,1,1-2.64Zm5.73-3c-.49,0-1.13-.08-2-.08a12,12,0,0,0-4.61.74l-1-2.39c2.28-.94,3.63-1.1,7.63-1.08Z"/><path class="cls-1" d="M242.07,2.3A35.61,35.61,0,0,0,241.54,8c0,1.53.08,5.06,1.44,5.06.89,0,1.64-1.89,2.13-3.34l2.32,1.4c-.92,2.72-2.34,5.26-4.59,5.26-3.66,0-4.12-5.55-4.12-8.79,0-2,.21-4.34.34-5.56ZM251,14.67c.1-2.91,0-8.17-3.08-10.69l2.3-1.51c2.36,2.25,3.87,4.62,3.87,12.06Z"/></g></g></svg>