<svg xmlns="http://www.w3.org/2000/svg" viewBox="0 0 459.15 29.49"><defs><style>.cls-1{fill:#fff;}</style></defs><g id="レイヤー_2" data-name="レイヤー 2"><g id="レイヤー_2-2" data-name="レイヤー 2"><path class="cls-1" d="M8.7,4.23A28.38,28.38,0,0,1,2.34,17.46L0,14.91C2,13,3.6,10.71,5.58,3.45ZM23.91,15.87C18.42,24.63,12.78,28.2,1.35,29.49l-1-3.27c10.38-.69,16-4.17,20.85-12.3Zm-8-14.73v16c0,2-1.5,2.64-3.06,2.64H8.13l-.63-3.3h4.32c.39,0,.87,0,.87-.84V1.14Zm10.5,15.57c-1.89-1.74-4.86-4.77-7.2-12.33l3.06-1a24.54,24.54,0,0,0,6.75,11Z"/><path class="cls-1" d="M45.3,2.67c-.27,6.36-.42,13-.42,14.67,0,3.66.27,7.2,5.43,7.2,7.44,0,8.4-5.49,9.18-9.72l3.15,1.32c-1.08,5.58-3.3,11.61-12.27,11.61-8.16,0-9-5.22-9-10.53,0-2.31.15-12.51.18-14.58Z"/><path class="cls-1" d="M73.38,27.06c2.58-5.46,4.38-13.68,5-17.82H74.16V6.09h4.59C79,4,79,3.6,79.08,2.31l3.57.12c-.21,1.86-.3,2.43-.48,3.66h7.74V9.24H81.72c-1.65,9-3.42,15.36-4.92,18.93ZM87.93,19.5A4.69,4.69,0,0,0,87,22c0,2.19,2.88,2.43,6.51,2.43,1,0,3.66-.06,5.61-.24l0,3.36c-1.89,0-3.78.06-5.67.06-4.17,0-5.88-.42-7.23-1.14a4.45,4.45,0,0,1-2.4-4,7.69,7.69,0,0,1,1.47-4.14Zm10.56-5.91c-.84,0-1.74-.09-3.21-.09a21.84,21.84,0,0,0-8,1.26l-1.14-2.85c3-1.17,5.52-1.77,12.33-1.65ZM93.63,1.53a27.78,27.78,0,0,1,2.76,5.82L94.08,8.49a25.7,25.7,0,0,0-2.61-5.94ZM98.07.45a26.8,26.8,0,0,1,2.76,5.82L98.52,7.41a24.19,24.19,0,0,0-2.64-5.94Z"/><path class="cls-1" d="M114.9,2.91a79.29,79.29,0,0,0-1,12.78A48.87,48.87,0,0,0,115,26.94l-3.51.45a56.71,56.71,0,0,1-.93-11.28,92.83,92.83,0,0,1,.93-13.41Zm2.34,8.73V8.49h10.11c0-1-.12-5.13-.15-6h3.45c0,1.71.09,4.26.12,6h4.71v3.15h-4.65c0,8.16.06,15-10.41,16.5l-1.35-3.09c7.74-1.29,8.4-4,8.34-13.41Z"/><path class="cls-1" d="M145.47,12.69h11.4v7.62h-2.28v3.33a22.56,22.56,0,0,0,3.12-1.71l.63,2.7a40.75,40.75,0,0,1-6.57,3.48v-7.8h-1.83c-.42,5.49-2.4,7.47-4.2,8.91l-1.8-2.52a7.78,7.78,0,0,0,3.21-6.39h-1.68Zm4-11.61h3V3.21h4.77V5.76H156c-.24,1.2-.36,1.62-.63,2.58h2.22v2.58H144.45V8.34h2.31c-.12-.87-.51-2.19-.6-2.58h-1V3.21h4.32ZM148.17,15v3h5.94V15Zm.63-9.21a26.12,26.12,0,0,1,.69,2.58h3.18a20.56,20.56,0,0,0,.54-2.58Zm20.07,14.55v5c0,.33,0,.81.36.81.54,0,.78,0,.87-.45,0-.21.12-2.28.15-2.7l2.64.63c-.21,4.17-.48,5.34-2.13,5.34h-2.91a1.65,1.65,0,0,1-1.83-1.8V20.31h-1.86c-.39,5.85-3.33,7.71-5.64,8.88L157,26.7c3-1.41,4.11-2.85,4.41-6.39h-2.07V12.69h12.06v7.62Zm-4.8-19.23H167V3.21h4.68V5.76h-1.05c-.27,1.2-.42,1.77-.66,2.58h2.43v2.58H158.52V8.34H161c-.3-1.62-.36-1.92-.48-2.58H159V3.21h5.1ZM162.12,15v3h6.45V15Zm1-9.21c.39,1.89.42,2.1.54,2.58h3.48a20,20,0,0,0,.54-2.58Z"/><path class="cls-1" d="M185.37,20.4a23.33,23.33,0,0,1-2.64,9.06l-2.58-2.28a18.13,18.13,0,0,0,2.22-7.26ZM206.91,5h-10.5V7.08h9.27V9.45h-9.27v2.13h9.27v2.31h-9.27V16h11.28c-.09,4.83-.57,10-1.47,11.73a2.81,2.81,0,0,1-2.67,1.59h-4.62l-.78-3.3,4.35.15a1.1,1.1,0,0,0,1.14-.9c.51-1.35.75-5.67.81-6.63H182.52V2.22h24.39ZM185.49,5V7.08h8.07V5Zm0,4.5v2.13h8.07V9.45Zm0,4.44V16h8.07V13.89Zm4.29,7a28.69,28.69,0,0,1,.84,7.11l-3.21.24a29.61,29.61,0,0,0-.57-7.35Zm5.1-.42a26.52,26.52,0,0,1,1.77,6.06l-3.09.66A29,29,0,0,0,192,20.79Zm5.61-.48a20.8,20.8,0,0,1,1.71,4.11l-2.91.81a25.07,25.07,0,0,0-1.74-4.5Z"/><path class="cls-1" d="M228.48,27a39.27,39.27,0,0,1-4-5.76,16.09,16.09,0,0,1-6.21,7.86l-2.19-2.67a13.86,13.86,0,0,0,6.66-10.11H216.3v-3H223V7.68h-1.56a36,36,0,0,1-2.61,4.23l-2.7-1.74A20.87,20.87,0,0,0,220.68.9l3.15.54c-.54,1.74-.72,2.28-1.08,3.24h7.89v3H226v5.7h5v3h-5.25c-.06.51-.09.6-.12.87,1.5,3.21,2.49,4.47,5.28,7.65Zm15.18,1.53H231.87V2.7h11.79ZM240.51,5.64h-5.7v20h5.7Z"/><path class="cls-1" d="M261.54,6.09v2.7h-9.09V6.09ZM261,1.68V4.35h-7.71V1.68Zm0,8.79v2.67h-7.71V10.47Zm0,4.41v2.7h-7.71v-2.7Zm0,4.53v9.27h-7.71V19.41Zm-2.64,2.49H255.9v4.32h2.43Zm17-20.85c0,7.47,0,8.31.06,9.75h5.07v2.7h-5c.21,3.24.39,4.62.57,5.94A48.74,48.74,0,0,0,278,14.67l2.52.9a35.16,35.16,0,0,1-3.57,7.83c.18.54.6,2,1.05,2s.93-2.46,1.11-3.45L281.22,23c-.36,1.83-1.11,6.12-3.48,6.12-1.68,0-2.67-2.49-2.94-3.12a20.46,20.46,0,0,1-3.87,3.21l-1.2-1.71h-7.29V15.45h8.76V25.68A18,18,0,0,0,274,23a63.72,63.72,0,0,1-1.08-9.48H261.75V10.8h1.92c-.18-2.19-.39-3.54-.6-5h-1.14V3.39h3.66V1.05h2.88V3.39H272V5.85h-1.11c-.15,1.29-.21,1.65-.72,5h2.52c-.12-5.34-.15-5.91-.15-9.75ZM268.65,17.7H265v2.64h3.66Zm0,4.74H265v2.82h3.66Zm-.93-11.64c.21-1,.66-3.9.78-5h-3.09c.12.72.57,4.17.66,5ZM278,8.52a31,31,0,0,0-1.95-5.43l2.46-.72a32.25,32.25,0,0,1,2.19,5.25Z"/><path class="cls-1" d="M312.84,5V8H299.91a22.23,22.23,0,0,1-1.74,3.78c1.77-1,2.85-1.56,4.38-1.56,2.49,0,4,1,4.68,3.27,1.38-.54,4.83-1.89,7.23-2.64l.78,3.18a72.77,72.77,0,0,0-7.56,2.34,30.41,30.41,0,0,1,.15,3.24,21.53,21.53,0,0,1-.09,2.19h-3.21a22.7,22.7,0,0,0,.09-4.17c-3.15,1.47-5.13,3-5.13,4.77,0,2.4,2.94,2.4,6.24,2.4a70.56,70.56,0,0,0,7.77-.42l.09,3.21c-2.07.12-4.59.24-6.93.24-3.57,0-10.56,0-10.56-5,0-4.2,5.61-6.93,8.13-8a2.16,2.16,0,0,0-2.37-1.86,8.37,8.37,0,0,0-5.4,2.67c-.12.12-3.63,4.77-4.44,5.58l-2.28-2.4A26,26,0,0,0,296.52,8h-5.85V5h6.72a24,24,0,0,0,.6-3.18l3.54.15c-.21,1.14-.36,1.74-.69,3Z"/><path class="cls-1" d="M347.7,11v2.49a32.76,32.76,0,0,1-7.65,4.8v.24h12.6v2.94h-12.6v5.37a2.54,2.54,0,0,1-2.46,2.49h-5.88l-.57-3.18H336c.84,0,.84-.42.84-1V21.51H324.24V18.57h12.57V16.23h1.32a13.76,13.76,0,0,0,4.44-2.37H329.22V11ZM329,5.94a26.6,26.6,0,0,0-1.8-3.69l2.91-1.08a18,18,0,0,1,2.25,4.5l-.69.27h6a23.69,23.69,0,0,0-2-3.87l3-1.14a24.31,24.31,0,0,1,2.28,4.68l-1,.33h4.86a34,34,0,0,0,2-4.92l3.45,1a29.78,29.78,0,0,1-2,3.9H352v6.87h-3v-4H328.08v4h-3V5.94Z"/><path class="cls-1" d="M371.85,4.17V7.23c-1.35,1-5.91,4.44-5.91,10.74,0,5,3.36,6.45,6.48,6.45,4.35,0,7-2.19,7-7.5a26.23,26.23,0,0,0-2.61-11.37c-.54-1-.72-1.41-1-2l3.09-1a14.64,14.64,0,0,0,8.94,9.24l-1.26,3.42a12,12,0,0,1-5.1-4,20.62,20.62,0,0,1,1,6.15c0,5.91-2.58,10.35-9.9,10.35-9.18,0-9.84-7.32-9.84-9.3a14.89,14.89,0,0,1,5-11l-5.4.06V4.17Zm11-3.24a24.37,24.37,0,0,1,2.49,5.94l-2.22,1a25,25,0,0,0-2.34-6ZM387.15,0a25.49,25.49,0,0,1,2.49,5.91l-2.25,1a23.11,23.11,0,0,0-2.34-6Z"/><path class="cls-1" d="M397.38,27.06c2.82-5.94,4.5-14.55,4.95-17.82h-4.17V6.09h4.59c.21-2.07.24-2.49.33-3.78l3.57.12c-.21,1.86-.3,2.43-.48,3.66h7.74V9.24h-8.19c-1.5,8.13-3.21,14.85-4.92,18.93Zm14.55-7.56A4.69,4.69,0,0,0,411,22c0,2.19,2.88,2.43,6.51,2.43,1,0,3.66-.06,5.61-.24l0,3.36c-1.89,0-3.78.06-5.67.06-3.9,0-5.7-.33-7.23-1.14a4.45,4.45,0,0,1-2.4-4,7.69,7.69,0,0,1,1.47-4.14Zm10.56-5.91c-.84,0-1.74-.09-3.21-.09a21.84,21.84,0,0,0-8,1.26l-1.14-2.85c3-1.17,5.52-1.77,12.33-1.65Z"/><path class="cls-1" d="M438.21,4a58.65,58.65,0,0,0-.72,8.91c0,3.9.27,10.32,3.3,10.32A2.82,2.82,0,0,0,443,21.78a19.76,19.76,0,0,0,2.37-4.86l2.73,1.62a18.92,18.92,0,0,1-4,7.05,4.8,4.8,0,0,1-3.45,1.47c-5.31,0-6.42-7.77-6.42-14.49,0-2.94.27-6.18.51-8.88Zm17.28,20.19c.06-5.31.18-13.26-5.31-17.76l2.64-1.89c4.74,4.2,6.33,8.49,6.33,19.5Z"/></g></g></svg>