<svg xmlns="http://www.w3.org/2000/svg" viewBox="0 0 423.21 29.46"><defs><style>.cls-1{fill:#fff;}</style></defs><g id="レイヤー_2" data-name="レイヤー 2"><g id="レイヤー_2-2" data-name="レイヤー 2"><path class="cls-1" d="M1.53,12.69h11.4v7.62H10.65v3.33a22.56,22.56,0,0,0,3.12-1.71l.63,2.7a40.75,40.75,0,0,1-6.57,3.48v-7.8H6c-.42,5.49-2.4,7.47-4.2,8.91L0,26.7a7.78,7.78,0,0,0,3.21-6.39H1.53Zm4-11.61h3V3.21h4.77V5.76H12c-.24,1.2-.36,1.62-.63,2.58h2.22v2.58H.51V8.34H2.82c-.12-.87-.51-2.19-.6-2.58h-1V3.21H5.55ZM4.23,15v3h5.94V15Zm.63-9.21a26.12,26.12,0,0,1,.69,2.58H8.73a20.56,20.56,0,0,0,.54-2.58ZM24.93,20.31v5c0,.33,0,.81.36.81.54,0,.78,0,.87-.45,0-.21.12-2.28.15-2.7l2.64.63c-.21,4.17-.48,5.34-2.13,5.34H23.91a1.65,1.65,0,0,1-1.83-1.8V20.31H20.22c-.39,5.85-3.33,7.71-5.64,8.88L13.05,26.7c3-1.41,4.11-2.85,4.41-6.39H15.39V12.69H27.45v7.62ZM20.13,1.08h2.94V3.21h4.68V5.76H26.7C26.43,7,26.28,7.53,26,8.34h2.43v2.58H14.58V8.34H17c-.3-1.62-.36-1.92-.48-2.58H15V3.21h5.1ZM18.18,15v3h6.45V15Zm1.05-9.21c.39,1.89.42,2.1.54,2.58h3.48a20,20,0,0,0,.54-2.58Z"/><path class="cls-1" d="M41.43,20.4a23.33,23.33,0,0,1-2.64,9.06l-2.58-2.28a18.13,18.13,0,0,0,2.22-7.26ZM63,5H52.47V7.08h9.27V9.45H52.47v2.13h9.27v2.31H52.47V16H63.75c-.09,4.83-.57,10-1.47,11.73a2.81,2.81,0,0,1-2.67,1.59H55L54.21,26l4.35.15a1.1,1.1,0,0,0,1.14-.9c.51-1.35.75-5.67.81-6.63H38.58V2.22H63ZM41.55,5V7.08h8.07V5Zm0,4.5v2.13h8.07V9.45Zm0,4.44V16h8.07V13.89Zm4.29,7A28.69,28.69,0,0,1,46.68,28l-3.21.24a29.61,29.61,0,0,0-.57-7.35Zm5.1-.42a26.52,26.52,0,0,1,1.77,6.06l-3.09.66a29,29,0,0,0-1.53-6.42ZM56.55,20a20.8,20.8,0,0,1,1.71,4.11l-2.91.81a25.07,25.07,0,0,0-1.74-4.5Z"/><path class="cls-1" d="M71.73,24.48a21.71,21.71,0,0,0,6.09-5.61H72.6V16.11h6.09V13.32H72.45V10.59h3.33a24.54,24.54,0,0,0-.9-4.29H73.05V3.57h5.64V1.08h2.88V3.57h5.19V6.3H85.35a41,41,0,0,1-1.08,4.29h2.94v2.73H81.57v2.79h5v2.76H82.14a15.49,15.49,0,0,0,3.69,3.42L84.33,25a16,16,0,0,1-2.76-3.21v7.53H78.69V21.84a22.85,22.85,0,0,1-5.31,5.4ZM77.61,6.3a34,34,0,0,1,.93,4.29h3A35.73,35.73,0,0,0,82.5,6.3ZM100.5,3.9a24.49,24.49,0,0,1-9.27,2.25v4.56h9.27v2.88H97.56V29.31H94.44V13.59H91.23v.81c0,8.37-1.65,11.58-4,14.91l-2.91-2c2.61-3.12,3.93-6.18,3.93-12.81V3.33A22.29,22.29,0,0,0,98.79,1.08Z"/><path class="cls-1" d="M109.5,2.07h11.37v9.18h-8.43v18H109.5Zm2.94,2.16V5.85h5.61V4.23Zm0,3.3V9.18h5.61V7.53Zm1,17c1,0,1.5,0,2.55,0V15.06h-1.74V12.78H130.8v2.28h-2v13.5h-2.58V26.1c-3.3.48-8.61.84-12.57,1Zm5.13-7.74h7.65V15.06h-7.65Zm0,3.75h7.65V18.75h-7.65Zm7.65,2h-7.65v1.95c3.15-.12,5.37-.27,7.65-.51ZM123.9,2.07h11.52V26.88a2.1,2.1,0,0,1-2.31,2.4h-3.24l-.45-3h2.43c.27,0,.57-.06.57-.54V11.25H123.9Zm2.82,3.78h5.7V4.23h-5.7Zm0,3.33h5.7V7.53h-5.7Z"/><path class="cls-1" d="M151.59,3.15a61.25,61.25,0,0,0-1.29,13.68,52.34,52.34,0,0,0,.87,10.62l-3.57.27a60.47,60.47,0,0,1-.75-10.35,75.6,75.6,0,0,1,1.2-14.49Zm7.68,12.93A7.17,7.17,0,0,0,157.8,20c0,2.52,3,2.79,5.85,2.79a63.27,63.27,0,0,0,6.93-.36v3.48c-1.62.12-3.42.27-5.55.27-4.92,0-10.35-.48-10.35-5.79a9.88,9.88,0,0,1,1.56-5.13ZM170,5.16v3.3h-14.4V5.16Z"/><path class="cls-1" d="M189.42,23c3.63,0,14.28-.06,14.28-8.43,0-2.76-1.32-6.09-6.66-6.09-2.73,0-7.17.75-15,2.73l-.81-3.72,8.07-1.38a46.59,46.59,0,0,1,8-.93c6.78,0,10,4.38,10,9.33,0,2.37-.72,7.53-7.14,10.11a28.1,28.1,0,0,1-9.75,1.65Z"/><path class="cls-1" d="M222.27,4a58.65,58.65,0,0,0-.72,8.91c0,3.9.27,10.32,3.3,10.32A2.82,2.82,0,0,0,227,21.78a19.76,19.76,0,0,0,2.37-4.86l2.73,1.62a18.92,18.92,0,0,1-4,7.05,4.8,4.8,0,0,1-3.45,1.47c-5.31,0-6.42-7.77-6.42-14.49,0-2.94.27-6.18.51-8.88Zm17.28,20.19c.06-5.31.18-13.26-5.31-17.76l2.64-1.89c4.74,4.2,6.33,8.49,6.33,19.5Z"/><path class="cls-1" d="M278.91,7.23c-1.14-.06-2.07-.12-2.88-.12a9.82,9.82,0,0,0-3.18.36C268.59,8.79,263,13.41,263,18.3c0,3.75,3,4.74,5.88,5.28a37.88,37.88,0,0,0,7.44.45l-.6,3.6c-6.06-.18-16.2-.51-16.2-9.12,0-5.76,5.4-9.57,8-11.19-3.18.21-10.86.75-13.65,1.08l-.24-3.63c1.92,0,10.41-.51,12.12-.6,4.59-.21,8-.27,13.05-.36Z"/><path class="cls-1" d="M311.76,11v2.49a32.76,32.76,0,0,1-7.65,4.8v.24h12.6v2.94h-12.6v5.37a2.54,2.54,0,0,1-2.46,2.49h-5.88l-.57-3.18H300c.84,0,.84-.42.84-1V21.51H288.3V18.57h12.57V16.23h1.32a13.76,13.76,0,0,0,4.44-2.37H293.28V11ZM293,5.94a26.6,26.6,0,0,0-1.8-3.69l2.91-1.08a18,18,0,0,1,2.25,4.5l-.69.27h6a23.69,23.69,0,0,0-2-3.87l3-1.14a24.31,24.31,0,0,1,2.28,4.68l-1,.33h4.86a34,34,0,0,0,2-4.92l3.45,1a29.78,29.78,0,0,1-2,3.9H316v6.87h-3v-4H292.14v4h-3V5.94Z"/><path class="cls-1" d="M335.91,4.17V7.23C334.56,8.25,330,11.67,330,18c0,5,3.36,6.45,6.48,6.45,4.35,0,7-2.19,7-7.5a26.23,26.23,0,0,0-2.61-11.37c-.54-1-.72-1.41-1-2l3.09-1a14.64,14.64,0,0,0,8.94,9.24l-1.26,3.42a12,12,0,0,1-5.1-4,20.62,20.62,0,0,1,1,6.15c0,5.91-2.58,10.35-9.9,10.35-9.18,0-9.84-7.32-9.84-9.3a14.89,14.89,0,0,1,5-11l-5.4.06V4.17Zm11-3.24a24.37,24.37,0,0,1,2.49,5.94l-2.22,1a25,25,0,0,0-2.34-6ZM351.21,0a25.49,25.49,0,0,1,2.49,5.91l-2.25,1a23.11,23.11,0,0,0-2.34-6Z"/><path class="cls-1" d="M361.44,27.06c2.82-5.94,4.5-14.55,4.95-17.82h-4.17V6.09h4.59c.21-2.07.24-2.49.33-3.78l3.57.12c-.21,1.86-.3,2.43-.48,3.66H378V9.24h-8.19c-1.5,8.13-3.21,14.85-4.92,18.93ZM376,19.5A4.69,4.69,0,0,0,375,22c0,2.19,2.88,2.43,6.51,2.43,1,0,3.66-.06,5.61-.24l0,3.36c-1.89,0-3.78.06-5.67.06-3.9,0-5.7-.33-7.23-1.14a4.45,4.45,0,0,1-2.4-4,7.69,7.69,0,0,1,1.47-4.14Zm10.56-5.91c-.84,0-1.74-.09-3.21-.09a21.84,21.84,0,0,0-8,1.26l-1.14-2.85c3-1.17,5.52-1.77,12.33-1.65Z"/><path class="cls-1" d="M402.27,4a58.65,58.65,0,0,0-.72,8.91c0,3.9.27,10.32,3.3,10.32A2.82,2.82,0,0,0,407,21.78a19.76,19.76,0,0,0,2.37-4.86l2.73,1.62a18.92,18.92,0,0,1-4,7.05,4.8,4.8,0,0,1-3.45,1.47c-5.31,0-6.42-7.77-6.42-14.49,0-2.94.27-6.18.51-8.88Zm17.28,20.19c.06-5.31.18-13.26-5.31-17.76l2.64-1.89c4.74,4.2,6.33,8.49,6.33,19.5Z"/></g></g></svg>