<svg xmlns="http://www.w3.org/2000/svg" viewBox="0 0 369.29 28.64"><defs><style>.cls-1{fill:none;stroke:#595757;stroke-linecap:round;stroke-linejoin:round;stroke-width:2.13px;}.cls-2{fill:#fff;}</style></defs><g id="レイヤー_2" data-name="レイヤー 2"><g id="レイヤー_2-2" data-name="レイヤー 2"><path class="cls-1" d="M5.66,11.37A47.83,47.83,0,0,0,16.74,7L18.9,11.2A65.11,65.11,0,0,1,5.66,15.73v4.71c0,1.4.3,1.54,2,1.54H15a31.2,31.2,0,0,0,6.19-.64l.28,4.59a30.67,30.67,0,0,1-5.07.39H6.78c-1.88,0-5.72-.09-5.72-4.54V4h4.6ZM18.31,2.18a24.51,24.51,0,0,1,2.86,5.27l-2.24,1.2a24.47,24.47,0,0,0-2.72-5.38Zm3.92-1.12a23.9,23.9,0,0,1,2.83,5.29L22.79,7.56a23.05,23.05,0,0,0-2.66-5.38Z"/><path class="cls-1" d="M45.73,27.27l-4.65.31-.7-7.28-9.77.92L30.22,17,40,16.07l-.33-3.64-8.57.84-.34-4.11,8.49-.85-.48-4.84,4.65-.36.45,4.76,8-.76.39,4.09L44.25,12l.33,3.67,9.52-.89.31,4.2L45,19.85ZM50,1.09a22.67,22.67,0,0,1,2,5L49.65,7a20.66,20.66,0,0,0-1.87-5Zm4.31,0a23.34,23.34,0,0,1,2,5.29l-2.38.93a22.43,22.43,0,0,0-1.88-5.35Z"/><path class="cls-1" d="M85.52,8.65V13l-9,0c-.28,4.2-.7,11-11.09,14.28l-2.6-3.83c3.16-.9,6-2.41,7.42-4.37s1.51-3.59,1.62-6.11H62.14V8.65h9.74V3.3H76.5V8.65Z"/><path class="cls-1" d="M117.23,12.88V17.5h-24V12.88Z"/><path class="cls-1" d="M141.29,8.31A28.24,28.24,0,0,1,137.43,16a80,80,0,0,1,8.79,7.54l-3.7,3.72a80.38,80.38,0,0,0-7.81-7.87A33.81,33.81,0,0,1,124,27.22l-2.52-3.76A26.26,26.26,0,0,0,136.31,8.65H123.15V4.42h15.56Zm.53-6.24a24,24,0,0,1,2.58,5.41l-2.13,1.09a22,22,0,0,0-2.44-5.49Zm3.7-1a25.06,25.06,0,0,1,2.55,5.44l-2.13,1.09a23.3,23.3,0,0,0-2.41-5.52Z"/><path class="cls-1" d="M153.6,13.94l-.31-4.36,5.49-.51V3.25h4.54V8.68L177,7.48c-.36,6.21-2.77,10.16-8.32,12.9L166,17c3.66-1.49,4.73-3.31,5.46-4.85l-8.15.84v7.62c0,1.54.28,1.73,2.29,1.73h6.33a23.72,23.72,0,0,0,4.29-.36V26.4a33.84,33.84,0,0,1-4.18.25h-7.36c-5.46,0-5.91-3.19-5.91-5.57V13.44Z"/><path class="cls-1" d="M205.18,27.41A91.34,91.34,0,0,0,184.71,24l.84-4.29a92.58,92.58,0,0,1,21.11,3.08Zm-2-9.15a77.38,77.38,0,0,0-17-2.92l.81-4a76.56,76.56,0,0,1,17.06,2.72Zm1.51-7.87a78.39,78.39,0,0,0-18.34-3l.73-4.09a86.55,86.55,0,0,1,18.45,2.52Z"/><path class="cls-1" d="M238,8.65V13l-9,0c-.28,4.2-.7,11-11.09,14.28l-2.6-3.83c3.16-.9,6-2.41,7.42-4.37s1.51-3.59,1.62-6.11h-9.69V8.65h9.75V3.3H229V8.65Z"/><path class="cls-1" d="M269.71,12.88V17.5h-24V12.88Z"/><path class="cls-1" d="M298,13.77c-4.9.45-15.4,2.25-15.4,6.36,0,2.41,3.05,2.52,7.17,2.52a82.81,82.81,0,0,0,9-.47l0,4.56c-1.51.11-4,.31-7.84.31-4.45,0-13.19,0-13.19-6.67,0-3.89,3.59-6.44,6.75-7.95a5.06,5.06,0,0,1-.93-2.49,54.43,54.43,0,0,1-.25-6.67h4.79c0,1,0,1.8,0,3.73,0,2.3,0,3.05.5,3.89a51.12,51.12,0,0,1,8.82-1.79Z"/><path class="cls-1" d="M313,3.67a50.82,50.82,0,0,0-1.15,12,53.79,53.79,0,0,0,.92,10.87l-4.48.5a71.64,71.64,0,0,1-.78-11.31,65.33,65.33,0,0,1,1-12.35Zm17.78,4v4.2h-4.54l0,5.88a20.74,20.74,0,0,1,5.29,3.7l-2.74,3.89A16.75,16.75,0,0,0,326,22.73a4.5,4.5,0,0,1-1.07,2.78c-.86,1-2.51,1.57-4.73,1.57-4.39,0-6.46-2.58-6.46-5.38s2.26-5.29,6.38-5.29a7.17,7.17,0,0,1,1.73.17l0-4.68h-7.45V7.7h7.33V3.56h4.54V7.7Zm-8.85,12.77a4.29,4.29,0,0,0-1.85-.39c-1.31,0-2.52.53-2.52,1.7,0,.95.84,1.66,2.35,1.66,2,0,2-1.21,2-1.74Z"/><path class="cls-1" d="M344,3.33l-.59,15.9h-3.84L339,3.33Zm-4.87,18h4.7v4.53h-4.7Z"/><path class="cls-1" d="M353.61,5.54a10.35,10.35,0,0,1,7.05-2.66c5,0,7.56,3.31,7.56,6.58,0,2.77-1.62,4.23-3,5.49-2.24,2-2.38,2.49-2.38,4.51h-4.4c0-2.94.2-4.28,2.55-6.24s2.83-2.38,2.83-3.59c0-1.57-1.32-2.69-3.42-2.69a7,7,0,0,0-5.32,2.61Zm4.67,15.77H363v4.53h-4.71Z"/><path class="cls-2" d="M5.66,11.37A47.83,47.83,0,0,0,16.74,7L18.9,11.2A65.11,65.11,0,0,1,5.66,15.73v4.71c0,1.4.3,1.54,2,1.54H15a31.2,31.2,0,0,0,6.19-.64l.28,4.59a30.67,30.67,0,0,1-5.07.39H6.78c-1.88,0-5.72-.09-5.72-4.54V4h4.6ZM18.31,2.18a24.51,24.51,0,0,1,2.86,5.27l-2.24,1.2a24.47,24.47,0,0,0-2.72-5.38Zm3.92-1.12a23.9,23.9,0,0,1,2.83,5.29L22.79,7.56a23.05,23.05,0,0,0-2.66-5.38Z"/><path class="cls-2" d="M45.73,27.27l-4.65.31-.7-7.28-9.77.92L30.22,17,40,16.07l-.33-3.64-8.57.84-.34-4.11,8.49-.85-.48-4.84,4.65-.36.45,4.76,8-.76.39,4.09L44.25,12l.33,3.67,9.52-.89.31,4.2L45,19.85ZM50,1.09a22.67,22.67,0,0,1,2,5L49.65,7a20.66,20.66,0,0,0-1.87-5Zm4.31,0a23.34,23.34,0,0,1,2,5.29l-2.38.93a22.43,22.43,0,0,0-1.88-5.35Z"/><path class="cls-2" d="M85.52,8.65V13l-9,0c-.28,4.2-.7,11-11.09,14.28l-2.6-3.83c3.16-.9,6-2.41,7.42-4.37s1.51-3.59,1.62-6.11H62.14V8.65h9.74V3.3H76.5V8.65Z"/><path class="cls-2" d="M117.23,12.88V17.5h-24V12.88Z"/><path class="cls-2" d="M141.29,8.31A28.24,28.24,0,0,1,137.43,16a80,80,0,0,1,8.79,7.54l-3.7,3.72a80.38,80.38,0,0,0-7.81-7.87A33.81,33.81,0,0,1,124,27.22l-2.52-3.76A26.26,26.26,0,0,0,136.31,8.65H123.15V4.42h15.56Zm.53-6.24a24,24,0,0,1,2.58,5.41l-2.13,1.09a22,22,0,0,0-2.44-5.49Zm3.7-1a25.06,25.06,0,0,1,2.55,5.44l-2.13,1.09a23.3,23.3,0,0,0-2.41-5.52Z"/><path class="cls-2" d="M153.6,13.94l-.31-4.36,5.49-.51V3.25h4.54V8.68L177,7.48c-.36,6.21-2.77,10.16-8.32,12.9L166,17c3.66-1.49,4.73-3.31,5.46-4.85l-8.15.84v7.62c0,1.54.28,1.73,2.29,1.73h6.33a23.72,23.72,0,0,0,4.29-.36V26.4a33.84,33.84,0,0,1-4.18.25h-7.36c-5.46,0-5.91-3.19-5.91-5.57V13.44Z"/><path class="cls-2" d="M205.18,27.41A91.34,91.34,0,0,0,184.71,24l.84-4.29a92.58,92.58,0,0,1,21.11,3.08Zm-2-9.15a77.38,77.38,0,0,0-17-2.92l.81-4a76.56,76.56,0,0,1,17.06,2.72Zm1.51-7.87a78.39,78.39,0,0,0-18.34-3l.73-4.09a86.55,86.55,0,0,1,18.45,2.52Z"/><path class="cls-2" d="M238,8.65V13l-9,0c-.28,4.2-.7,11-11.09,14.28l-2.6-3.83c3.16-.9,6-2.41,7.42-4.37s1.51-3.59,1.62-6.11h-9.69V8.65h9.75V3.3H229V8.65Z"/><path class="cls-2" d="M269.71,12.88V17.5h-24V12.88Z"/><path class="cls-2" d="M298,13.77c-4.9.45-15.4,2.25-15.4,6.36,0,2.41,3.05,2.52,7.17,2.52a82.81,82.81,0,0,0,9-.47l0,4.56c-1.51.11-4,.31-7.84.31-4.45,0-13.19,0-13.19-6.67,0-3.89,3.59-6.44,6.75-7.95a5.06,5.06,0,0,1-.93-2.49,54.43,54.43,0,0,1-.25-6.67h4.79c0,1,0,1.8,0,3.73,0,2.3,0,3.05.5,3.89a51.12,51.12,0,0,1,8.82-1.79Z"/><path class="cls-2" d="M313,3.67a50.82,50.82,0,0,0-1.15,12,53.79,53.79,0,0,0,.92,10.87l-4.48.5a71.64,71.64,0,0,1-.78-11.31,65.33,65.33,0,0,1,1-12.35Zm17.78,4v4.2h-4.54l0,5.88a20.74,20.74,0,0,1,5.29,3.7l-2.74,3.89A16.75,16.75,0,0,0,326,22.73a4.5,4.5,0,0,1-1.07,2.78c-.86,1-2.51,1.57-4.73,1.57-4.39,0-6.46-2.58-6.46-5.38s2.26-5.29,6.38-5.29a7.17,7.17,0,0,1,1.73.17l0-4.68h-7.45V7.7h7.33V3.56h4.54V7.7Zm-8.85,12.77a4.29,4.29,0,0,0-1.85-.39c-1.31,0-2.52.53-2.52,1.7,0,.95.84,1.66,2.35,1.66,2,0,2-1.21,2-1.74Z"/><path class="cls-2" d="M344,3.33l-.59,15.9h-3.84L339,3.33Zm-4.87,18h4.7v4.53h-4.7Z"/><path class="cls-2" d="M353.61,5.54a10.35,10.35,0,0,1,7.05-2.66c5,0,7.56,3.31,7.56,6.58,0,2.77-1.62,4.23-3,5.49-2.24,2-2.38,2.49-2.38,4.51h-4.4c0-2.94.2-4.28,2.55-6.24s2.83-2.38,2.83-3.59c0-1.57-1.32-2.69-3.42-2.69a7,7,0,0,0-5.32,2.61Zm4.67,15.77H363v4.53h-4.71Z"/></g></g></svg>