<svg xmlns="http://www.w3.org/2000/svg" xmlns:xlink="http://www.w3.org/1999/xlink" viewBox="0 0 489 113.43"><defs><style>.cls-1,.cls-3{fill:none;}.cls-2{fill:#2ca6e0;}.cls-3,.cls-4,.cls-5{stroke:#231815;stroke-miterlimit:10;stroke-width:1.09px;}.cls-4{fill:#8dc21f;}.cls-5{fill:#faed00;}.cls-6{fill:url(#名称未設定グラデーション_2);}.cls-7{fill:#b28146;}.cls-8{fill:#231815;}.cls-9{fill:#804f21;}.cls-10{fill:#c79f62;}.cls-11{clip-path:url(#clip-path);}.cls-12{fill:#dfd5b8;}.cls-13{fill:#e95513;}</style><linearGradient id="名称未設定グラデーション_2" x1="179.89" y1="71.28" x2="239.47" y2="71.28" gradientTransform="translate(4 -8)" gradientUnits="userSpaceOnUse"><stop offset="0.5" stop-color="#faed00"/><stop offset="0.5" stop-color="#8dc21f"/></linearGradient><clipPath id="clip-path"><path class="cls-1" d="M226.71,63c0,11.26-3.93,20.38-13.21,20.38-9,0-13.2-9.12-13.2-20.38s4.81-20.46,13.2-20.38C222.46,42.48,226.71,51.76,226.71,63Z"/></clipPath></defs><title>アセット 4</title><g id="レイヤー_2" data-name="レイヤー 2"><g id="内容"><path class="cls-2" d="M36.33,20.07l-.81,4.54H31.21L28.76,38.49H19l2.45-13.88H18.64L12.46,38.49H2.7L8.88,24.61H4.31l.77-4.54H22.26l.58-3.32H32.6L32,20.07Z"/><path class="cls-2" d="M60.41,18.39h9.75L57.7,38.49H48Z"/><path class="cls-2" d="M105.1,25.23,99.22,38.49H89.46l3.87-8.73H73.09l.8-4.53Zm.44-2.3H74.29l.81-4.54h31.21Z"/><path class="cls-2" d="M142.05,22.12l-9.54,2.63L130.1,38.49h-9.76l1.94-10.92-13,3.58,1-5.34L143,16.75Z"/><path class="cls-2" d="M159.48,22.93H145.92l.8-4.54h13.56Zm7.6-4.54h9.76l-12.47,20.1h-9.75Z"/><line class="cls-3" x1="26.51" y1="63.62" x2="26.51" y2="53.37"/><path class="cls-4" d="M33.86,47.19a7,7,0,0,0-1.19-2.48,6.72,6.72,0,0,0-2.73.21,7.12,7.12,0,0,0-5,8.57A6.66,6.66,0,0,0,26.17,56a7,7,0,0,0,2.74-.2,6.94,6.94,0,0,0,4.95-8.57Z"/><path class="cls-5" d="M22.56,44.93a7,7,0,0,0-2.74-.2,6.58,6.58,0,0,0-1.18,2.47,7.12,7.12,0,0,0,4.95,8.57,6.69,6.69,0,0,0,2.73.21,7,7,0,0,0,1.19-2.48,7,7,0,0,0-5-8.57Z"/><path class="cls-6" d="M241.18,49a37,37,0,0,0-3.58-7.41l4-2.77-4.83-7-11.46,7.9,3,3.58A29.85,29.85,0,0,1,235,62.57c0,13.92-8.75,23.63-21.28,23.63s-21.29-9.71-21.29-23.63A29.8,29.8,0,0,1,199,43.34l3-3.58-11.47-7.9-4.82,7,4,2.77A37,37,0,0,0,186.18,49a40.39,40.39,0,0,0-2.29,13.53,36.82,36.82,0,0,0,2.28,13.05,30.11,30.11,0,0,0,6.38,10.21,29.58,29.58,0,0,0,42.26,0,29.93,29.93,0,0,0,6.37-10.21,36.6,36.6,0,0,0,2.29-13.05A40.39,40.39,0,0,0,241.18,49ZM189,72.53a2,2,0,1,1,2-2A2,2,0,0,1,189,72.53Zm0-16a2,2,0,1,1,2-2A2,2,0,0,1,189,56.49Zm8.67,30.38a2,2,0,1,1,2-2A2,2,0,0,1,197.7,86.87Zm32,0a2,2,0,1,1,2-2A2,2,0,0,1,229.66,86.87Zm8.67-14.34a2,2,0,1,1,2-2A2,2,0,0,1,238.33,72.53Zm0-16a2,2,0,1,1,2-2A2,2,0,0,1,238.33,56.49Z"/><path class="cls-7" d="M1.24,99.36A1.71,1.71,0,0,1,3,97.59H7.16c2.67,0,4.35,1.66,4.35,4a3.47,3.47,0,0,1-1.85,3,3.74,3.74,0,0,1,3.11,3.81c0,2.46-1.59,4.67-5.4,4.67H3a1.7,1.7,0,0,1-1.76-1.76Zm3.52,4.28H6.37c1,0,1.61-.5,1.61-1.46s-.58-1.45-1.61-1.45H4.76Zm0,6.31H7c1.18,0,2.13-.41,2.13-1.59S8,106.78,7,106.78H4.76Z"/><path class="cls-8" d="M22.84,99.36a1.71,1.71,0,0,1,1.76-1.77H30a1.58,1.58,0,0,1,1.76,1.64A1.56,1.56,0,0,1,30,100.86H26.36v2.8h3.33a1.64,1.64,0,1,1,0,3.27H26.36v2.89h3.77a1.56,1.56,0,0,1,1.76,1.63,1.58,1.58,0,0,1-1.76,1.63H24.6a1.7,1.7,0,0,1-1.76-1.76Z"/><path class="cls-8" d="M53.58,103.9c1.22,0,1.87.7,1.87,2.16,0,4.15-2.74,7.37-7.05,7.37-4.87,0-7.62-3.65-7.62-8.09,0-4.7,3.25-8.09,7.62-8.09,2.91,0,6,1.21,6,3.39a1.45,1.45,0,0,1-1.58,1.48c-1.29,0-1.9-1.61-4.27-1.61s-4,2.13-4,4.83c0,2.39,1.17,4.83,3.92,4.83a3.16,3.16,0,0,0,3.3-3h-2A1.58,1.58,0,0,1,48,105.54a1.56,1.56,0,0,1,1.76-1.64Z"/><path class="cls-8" d="M70.85,111.34a1.77,1.77,0,1,1-3.53,0v-12a1.77,1.77,0,1,1,3.53,0Z"/><path class="cls-8" d="M82.55,99.33a1.68,1.68,0,0,1,1.76-1.87c.94,0,1.26.42,2.44,1.9l5.85,7.33h0V99.33a1.77,1.77,0,1,1,3.53,0v12a1.68,1.68,0,0,1-1.76,1.87c-.94,0-1.29-.41-2.44-1.89L86.12,104h-.05v7.35a1.76,1.76,0,1,1-3.52,0Z"/><path class="cls-8" d="M103.08,99.33a1.68,1.68,0,0,1,1.76-1.87c.94,0,1.27.42,2.44,1.9l5.85,7.33h.05V99.33a1.76,1.76,0,1,1,3.52,0v12a1.68,1.68,0,0,1-1.76,1.87c-.94,0-1.28-.41-2.44-1.89L106.65,104h0v7.35a1.77,1.77,0,1,1-3.53,0Z"/><path class="cls-8" d="M126.66,99.36a1.71,1.71,0,0,1,1.76-1.77h5.4a1.58,1.58,0,0,1,1.76,1.64,1.56,1.56,0,0,1-1.76,1.63h-3.63v2.8h3.32a1.64,1.64,0,1,1,0,3.27h-3.32v2.89H134a1.56,1.56,0,0,1,1.76,1.63,1.58,1.58,0,0,1-1.76,1.63h-5.53a1.7,1.7,0,0,1-1.76-1.76Z"/><path class="cls-8" d="M145.87,99.36a1.71,1.71,0,0,1,1.76-1.77h4.24c3.14,0,5.18,1.92,5.18,4.81a4.21,4.21,0,0,1-3.61,4.35l3.07,3.31a2.16,2.16,0,0,1,.74,1.52,1.74,1.74,0,0,1-1.81,1.63,1.79,1.79,0,0,1-1.67-.87l-4.33-5.46h-.05v4.46a1.76,1.76,0,1,1-3.52,0Zm3.52,4.91h2.33a1.71,1.71,0,1,0,0-3.41h-2.33Z"/><path class="cls-8" d="M168.4,109c.87,0,2,.89,3.81.89,1.37,0,1.87-.7,1.87-1.46,0-1.17-1.35-1.41-3.35-2.07-1.83-.58-3.72-1.37-3.72-4.17,0-3.38,2.63-5,5.57-5s4.4,1,4.4,2.32a1.55,1.55,0,0,1-1.57,1.66c-1.13,0-1.5-.59-3-.59-1,0-1.61.5-1.61,1.26s.87,1,3.3,1.81c1.92.63,3.77,1.61,3.77,4.54,0,3.57-2.63,5.18-5.92,5.18-2.07,0-5.2-.8-5.2-2.54A1.72,1.72,0,0,1,168.4,109Z"/><path class="cls-8" d="M187.63,103.19a1.7,1.7,0,0,1-1.54,1,1.5,1.5,0,0,1-1.65-1.48,2.14,2.14,0,0,1,.32-1l1.79-3.2a1.7,1.7,0,0,1,1.54-1,1.5,1.5,0,0,1,1.65,1.48,2.14,2.14,0,0,1-.32,1Z"/><path class="cls-7" d="M210.52,109c.87,0,2,.89,3.8.89,1.37,0,1.87-.7,1.87-1.46,0-1.17-1.34-1.41-3.35-2.07-1.82-.58-3.72-1.37-3.72-4.17,0-3.38,2.64-5,5.57-5s4.4,1,4.4,2.32a1.55,1.55,0,0,1-1.57,1.66c-1.13,0-1.5-.59-3-.59-1,0-1.61.5-1.61,1.26s.87,1,3.31,1.81c1.91.63,3.76,1.61,3.76,4.54,0,3.57-2.63,5.18-5.92,5.18-2.06,0-5.2-.8-5.2-2.54A1.72,1.72,0,0,1,210.52,109Z"/><path class="cls-8" d="M230.42,99.36a1.71,1.71,0,0,1,1.76-1.77h5.4a1.58,1.58,0,0,1,1.76,1.64,1.56,1.56,0,0,1-1.76,1.63h-3.64v2.8h3.33a1.64,1.64,0,1,1,0,3.27h-3.33v2.89h3.77a1.56,1.56,0,0,1,1.76,1.63,1.58,1.58,0,0,1-1.76,1.63h-5.53a1.7,1.7,0,0,1-1.76-1.76Z"/><path class="cls-8" d="M248.08,99.68c.33-1.85,1.44-2.22,2.33-2.22,1.76,0,2.15,1,3.05,3.81l1.71,5.33h.05l1.72-5.33c.89-2.78,1.28-3.81,3-3.81.9,0,2,.37,2.33,2.22l1.39,8c.29,1.61.59,3.37.59,3.89a1.66,1.66,0,0,1-1.65,1.67c-1.59,0-1.87-1.13-2.05-2.32l-1-6.88h-.05l-2.37,7.62c-.35,1.13-.87,1.58-1.93,1.58s-1.59-.45-1.94-1.58L250.89,104h0l-1,6.88c-.17,1.19-.46,2.32-2,2.32a1.67,1.67,0,0,1-1.66-1.67c0-.52.31-2.28.59-3.89Z"/><path class="cls-8" d="M278.17,111.34a1.77,1.77,0,1,1-3.53,0v-12a1.77,1.77,0,1,1,3.53,0Z"/><path class="cls-8" d="M289.87,99.33a1.68,1.68,0,0,1,1.76-1.87c.94,0,1.26.42,2.44,1.9l5.85,7.33h0V99.33a1.77,1.77,0,1,1,3.53,0v12a1.68,1.68,0,0,1-1.77,1.87c-.93,0-1.28-.41-2.43-1.89L293.44,104h-.05v7.35a1.76,1.76,0,1,1-3.52,0Z"/><path class="cls-8" d="M314.32,100.44c.63-1.71,1.17-3.19,2.93-3.19s2.35,1.48,3,3.19l3.4,9.16a5.6,5.6,0,0,1,.52,2.18c0,.87-.7,1.43-1.7,1.43s-1.52-.73-1.84-1.71l-.44-1.4h-5.79l-.43,1.4c-.33,1-.7,1.71-1.85,1.71s-1.7-.56-1.7-1.43a5.8,5.8,0,0,1,.52-2.18Zm3,.72h0l-1.89,5.68h3.7Z"/><path class="cls-8" d="M332.37,99.36a1.71,1.71,0,0,1,1.76-1.77h4.25c3.13,0,5.17,1.92,5.17,4.81a4.21,4.21,0,0,1-3.61,4.35l3.07,3.31a2.16,2.16,0,0,1,.74,1.52,1.74,1.74,0,0,1-1.81,1.63,1.79,1.79,0,0,1-1.67-.87l-4.33-5.46h0v4.46a1.77,1.77,0,1,1-3.53,0Zm3.53,4.91h2.32a1.71,1.71,0,1,0,0-3.41H335.9Z"/><path class="cls-8" d="M10.44,58.46V47.62H0V71.46c0,9.82,11.94,15.8,27,16.31V81.42c-8.88-.92-16.58-4.16-16.58-11.51V66.05H31.15V60H10.44Z"/><polygon class="cls-8" points="58.93 58.63 69.04 58.63 69.04 52.73 58.08 52.73 57.23 47.11 46.53 47.11 47.38 52.73 37.2 52.73 37.2 58.63 48.23 58.63 49.01 64.02 35.17 64.02 35.17 70.14 49.85 70.14 52.47 87.86 63.17 87.86 60.56 70.14 71.78 70.14 71.78 64.02 59.71 64.02 58.93 58.63"/><path class="cls-8" d="M101.15,46.57H90.38v7.94H75.7V60H90.38V72.51a10.31,10.31,0,0,1-7.11,9.82v5.48c8.42-1.5,17.88-8.08,17.88-16.4V60h9.26V54.51h-9.26Z"/><rect class="cls-8" x="115.11" y="62.32" width="24.8" height="6.9"/><path class="cls-8" d="M167.64,57.44l.13-9.5H143.43v6.48h13.84c0,1.28-.07,3.38-.07,6.63-1,7.35-8,14.34-17.16,26.85h11l8.42-11.6,8.61,11.6H179L164.32,69C166.27,65.16,167.64,61.14,167.64,57.44Z"/><path class="cls-8" d="M261.78,52.42V45.84h-9.92v6.58H247v5.94h4.89V71.52c0,7.49,2,14.89,19.64,15.48V80.51c-8.87-.86-9.72-1.78-9.72-11.51V58.36H270l.13,4.89c.07,5.16-1,6.39-3.65,7.26v6.12c9.65-2.83,13.18-6.67,13.11-12.15l-.19-12.06Z"/><rect class="cls-8" x="284.29" y="47.49" width="28.52" height="6.49"/><rect class="cls-8" x="286.25" y="57.9" width="24.8" height="6.49"/><polygon class="cls-8" points="284.68 76.68 313.4 87.05 313.53 78.59 284.81 68.27 284.68 76.68"/><path class="cls-8" d="M344.46,45.8H333.69v8H319v5.48h14.68V71.74a10.31,10.31,0,0,1-7.11,9.82v5.49c8.42-1.51,17.88-8.09,17.88-16.4V59.23h9.27V53.75h-9.27Z"/><rect class="cls-8" x="358.42" y="61.56" width="24.8" height="6.9"/><path class="cls-8" d="M171.83,50.17a2.93,2.93,0,0,0,0-5.85,2.81,2.81,0,0,0-2.09.86,3,3,0,0,0,0,4.13A2.81,2.81,0,0,0,171.83,50.17Z"/><path class="cls-8" d="M178.47,44.32a2.81,2.81,0,0,0-2.09.86,3,3,0,0,0,0,4.13,2.93,2.93,0,1,0,2.09-5Z"/><path class="cls-8" d="M64.52,50.17a2.93,2.93,0,0,0,0-5.85,2.78,2.78,0,0,0-2.08.86,3,3,0,0,0,0,4.13A2.78,2.78,0,0,0,64.52,50.17Z"/><path class="cls-8" d="M71.17,44.32a2.81,2.81,0,0,0-2.09.86,3,3,0,0,0,0,4.13,2.93,2.93,0,0,0,4.15,0,2.93,2.93,0,0,0-2.06-5Z"/><path class="cls-7" d="M203.13,50.15s-5.31-4.27-5.23-8.7,2.37-4.9,4.82-3.79,4.19,4.9,4.66,7l.48,2.06Z"/><path class="cls-7" d="M223.83,50.71s6.27-4.83,6.19-9.26-2.37-4.9-4.82-3.79-4.19,4.9-4.66,7l-.48,2.06Z"/><path class="cls-7" d="M226.71,63c0,11.26-3.93,20.38-13.21,20.38-9,0-13.2-9.12-13.2-20.38s4.81-20.46,13.2-20.38C222.46,42.48,226.71,51.76,226.71,63Z"/><path class="cls-9" d="M212.6,47.77s-2,3.4-3.4,1.58-2.69-4.34-1.11-6.63,5-2.61,8.22-1.82,4.5,3.08,4.58,4.34-.39,3.64-1.82,3.56a2.38,2.38,0,0,1-2-1.19s-1.5,4.27-2.69,2.45A10.1,10.1,0,0,0,212.6,47.77Z"/><circle class="cls-8" cx="204.57" cy="61.52" r="2.13"/><ellipse class="cls-10" cx="205.52" cy="69.49" rx="2.74" ry="2.13"/><ellipse class="cls-10" cx="221.65" cy="69.49" rx="2.74" ry="2.13"/><circle class="cls-8" cx="222.99" cy="61.52" r="2.13"/><g class="cls-11"><ellipse class="cls-12" cx="213.53" cy="80.64" rx="9.79" ry="7.23"/></g><ellipse class="cls-8" cx="218.05" cy="77.72" rx="2.13" ry="1.22" transform="translate(-13.43 79.26) rotate(-20)"/><ellipse class="cls-8" cx="209.42" cy="77.72" rx="1.22" ry="2.13" transform="translate(64.76 247.93) rotate(-70)"/><path class="cls-13" d="M53.5,12.63a11.61,11.61,0,0,0-13.43,2.23,1.11,1.11,0,0,0,0,1.57,1.09,1.09,0,0,0,1,.3,1.06,1.06,0,0,0,.6-.31h0a9.38,9.38,0,0,1,10.86-1.8,1.11,1.11,0,0,0,1-2Zm3.34-5A18.59,18.59,0,0,0,35.3,11.23a1.12,1.12,0,0,0,0,1.57,1.1,1.1,0,0,0,1.57,0,16.31,16.31,0,0,1,19-3.14,1.11,1.11,0,0,0,1-2Zm3.33-5A25.57,25.57,0,0,0,30.55,7.61a1.11,1.11,0,0,0,0,1.57,1.12,1.12,0,0,0,1,.31,1.17,1.17,0,0,0,.61-.32h0a23.35,23.35,0,0,1,27-4.49,1.1,1.1,0,0,0,1.49-.49A1.11,1.11,0,0,0,60.17,2.7ZM47.5,18.06a4.29,4.29,0,1,0,4.94,3.53A4.29,4.29,0,0,0,47.5,18.06Z"/><path class="cls-8" d="M418.64,79.37c-8.77,0-13.58-3.19-13.58-8.76,0-5.21,4.68-8.71,10.19-10.65L412,52.48l4.35-1.29,3.13,7.52A72.84,72.84,0,0,1,429.16,57l.62,4.15c-2.47.3-5.7.76-8.63,1.38l1.55,3.73-4.12,1.38-1.68-3.92c-3.73,1.35-7.39,3.56-7.39,6.69,0,3.4,4,4.75,9.49,4.75a75.36,75.36,0,0,0,11.44-1.09l.33,4.32A84.12,84.12,0,0,1,418.64,79.37Z"/><path class="cls-8" d="M440.29,69.68v.83a86.91,86.91,0,0,0,.46,8.8l-4.44.26c-.2-3-.3-6.13-.3-9.23a138.44,138.44,0,0,1,1.28-19.15l4.32.33A126.4,126.4,0,0,0,440.29,69.68Zm22.61,6.07a50.73,50.73,0,0,0-4.84-3.07v6.56a33.94,33.94,0,0,1-5.31.46c-6.85,0-9.82-2.67-9.82-6.42,0-4.26,3.26-6.56,8.07-6.56a20.46,20.46,0,0,1,2.87.23V60.78h-2.63c-2.81,0-5.44,0-7.65-.06l.13-4c2.08.07,4.48.1,6.89.1,1.09,0,2.18,0,3.26,0V51.52h4.19v5.21c1.94-.07,3.82-.13,5.54-.23l.13,4c-1.78.1-3.69.14-5.67.17v7.41a35.59,35.59,0,0,1,6.56,3.66Zm-9-4.88a12,12,0,0,0-3.19-.5c-2.44,0-3.79,1.09-3.79,2.71s1.74,2.7,4.68,2.7a15.12,15.12,0,0,0,2.3-.2Z"/><path class="cls-8" d="M484.13,67.44c-1.68,1.29-3.43,2.7-3.43,4.91h-4.29c0-6.95,7.65-7.38,7.65-12.62,0-1.68-1.28-4-5.6-4-4.68,0-6.56,2.86-7.25,5.27l-4.72-1.06c1.29-4.81,5.24-8.4,12-8.4C486,51.49,489,55.84,489,59.6,489,64.18,485.64,66.32,484.13,67.44Zm-8.18,12V74.13H481v5.34Z"/></g></g></svg>