<svg xmlns="http://www.w3.org/2000/svg" viewBox="0 0 512.81 28.64"><defs><style>.cls-1{fill:none;stroke:#595757;stroke-linecap:round;stroke-linejoin:round;stroke-width:2.13px;}.cls-2{fill:#fff;}</style></defs><g id="レイヤー_2" data-name="レイヤー 2"><g id="レイヤー_2-2" data-name="レイヤー 2"><path class="cls-1" d="M2.32,11.81V7.59H14.59V3.36H19V7.59h6v4.22H19l0,11.37c0,4-3.42,4-4.74,4-.83,0-1.53,0-3.66-.08L10,22.71c1.49.11,2.72.19,3.33.19s1.29-.11,1.29-.95l0-6.24a32.77,32.77,0,0,1-10.9,8.87L1.06,21.11a35.38,35.38,0,0,0,12-9.3Z"/><path class="cls-1" d="M42,12.54a35.76,35.76,0,0,0-8.73-4.25l2-3.81a35.77,35.77,0,0,1,9.1,4Zm-8.2,9.52c9.41-.81,16.1-4.06,19.32-16.38L57,8.4c-3.75,12.29-10.61,17-22.23,18.48Z"/><path class="cls-1" d="M86.84,10.67c-.39,4.11-1.74,9.74-5.91,12.71-3.31,2.35-8.35,3.44-12.46,3.75l-1.35-4.2c7.65-.39,12.91-2.1,14.4-8.15H64.3V10.67ZM85.07,4V8.09H66.34V4Z"/><path class="cls-1" d="M110.15,27.08h-4.76V15.9a46.35,46.35,0,0,1-9,4l-2.24-4A41.74,41.74,0,0,0,114.13,2.83l4,2.77a50.19,50.19,0,0,1-7.93,7.2Z"/><path class="cls-1" d="M134.33,12.54a35.83,35.83,0,0,0-8.74-4.25l2-3.81a35.92,35.92,0,0,1,9.1,4Zm-8.21,9.52c9.41-.81,16.11-4.06,19.32-16.38l3.92,2.72c-3.75,12.29-10.61,17-22.23,18.48Z"/><path class="cls-1" d="M162.33,11.37A47.7,47.7,0,0,0,173.42,7l2.16,4.17a65,65,0,0,1-13.25,4.53v4.71c0,1.4.31,1.54,2,1.54h7.31a31,31,0,0,0,6.18-.64l.28,4.59a30.55,30.55,0,0,1-5.06.39h-9.61c-1.87,0-5.71-.09-5.71-4.54V4h4.59ZM175,2.18a24.45,24.45,0,0,1,2.85,5.27l-2.24,1.2a24,24,0,0,0-2.71-5.38Zm3.92-1.12a24.33,24.33,0,0,1,2.83,5.29l-2.27,1.21a23.45,23.45,0,0,0-2.66-5.38Z"/><path class="cls-1" d="M202.41,27.27l-4.65.31-.7-7.28-9.77.92L186.9,17l9.74-.93-.33-3.64-8.57.84-.34-4.11,8.49-.85-.48-4.84,4.65-.36.45,4.76,8-.76.39,4.09-7.92.78.33,3.67,9.52-.89.31,4.2-9.41.89Zm4.28-26.18a22.15,22.15,0,0,1,2,5L206.33,7a20.27,20.27,0,0,0-1.88-5Zm4.32,0a22.88,22.88,0,0,1,2,5.29l-2.38.93a22,22,0,0,0-1.87-5.35Z"/><path class="cls-1" d="M242.19,8.65V13l-9,0c-.28,4.2-.7,11-11.09,14.28l-2.6-3.83c3.16-.9,6-2.41,7.42-4.37s1.51-3.59,1.62-6.11h-9.69V8.65h9.75V3.3h4.62V8.65Z"/><path class="cls-1" d="M273.91,12.88V17.5h-24V12.88Z"/><path class="cls-1" d="M298,8.31A28,28,0,0,1,294.1,16a79.25,79.25,0,0,1,8.8,7.54l-3.7,3.72a80.38,80.38,0,0,0-7.81-7.87,33.81,33.81,0,0,1-10.67,7.79l-2.52-3.76A26.25,26.25,0,0,0,293,8.65H279.82V4.42h15.57Zm.53-6.24a24.45,24.45,0,0,1,2.58,5.41L299,8.57a22,22,0,0,0-2.44-5.49Zm3.7-1a25,25,0,0,1,2.54,5.44l-2.12,1.09a23.3,23.3,0,0,0-2.41-5.52Z"/><path class="cls-1" d="M310.28,13.94,310,9.58l5.49-.51V3.25H320V8.68l13.69-1.2c-.37,6.21-2.77,10.16-8.32,12.9L322.68,17c3.67-1.49,4.74-3.31,5.46-4.85L320,13v7.62c0,1.54.28,1.73,2.29,1.73h6.33A23.61,23.61,0,0,0,332.9,22V26.4a33.53,33.53,0,0,1-4.17.25h-7.36c-5.46,0-5.91-3.19-5.91-5.57V13.44Z"/><path class="cls-1" d="M361.86,27.41A91.34,91.34,0,0,0,341.39,24l.84-4.29a92.58,92.58,0,0,1,21.11,3.08Zm-2-9.15a77.38,77.38,0,0,0-17-2.92l.81-4a76.37,76.37,0,0,1,17.05,2.72Zm1.51-7.87a78.39,78.39,0,0,0-18.34-3l.73-4.09a86.65,86.65,0,0,1,18.45,2.52Z"/><path class="cls-1" d="M394.67,8.65V13l-9,0c-.28,4.2-.7,11-11.09,14.28l-2.61-3.83c3.17-.9,6-2.41,7.42-4.37S380.87,15.48,381,13h-9.69V8.65H381V3.3h4.62V8.65Z"/><path class="cls-1" d="M426.39,12.88V17.5h-24V12.88Z"/><path class="cls-1" d="M454.72,13.77c-4.9.45-15.4,2.25-15.4,6.36,0,2.41,3.05,2.52,7.17,2.52a82.91,82.91,0,0,0,9-.47l0,4.56c-1.52.11-4,.31-7.84.31-4.46,0-13.19,0-13.19-6.67,0-3.89,3.58-6.44,6.75-7.95a5.06,5.06,0,0,1-.93-2.49,54.43,54.43,0,0,1-.25-6.67h4.79c0,1-.06,1.8-.06,3.73,0,2.3,0,3.05.51,3.89a50.9,50.9,0,0,1,8.82-1.79Z"/><path class="cls-1" d="M469.68,3.67a51.65,51.65,0,0,0-1.14,12,53.79,53.79,0,0,0,.92,10.87L465,27a71.64,71.64,0,0,1-.78-11.31,65.33,65.33,0,0,1,1-12.35Zm17.78,4v4.2h-4.53l0,5.88a20.74,20.74,0,0,1,5.29,3.7l-2.75,3.89a16.65,16.65,0,0,0-2.82-2.64,4.5,4.5,0,0,1-1.07,2.78c-.86,1-2.52,1.57-4.73,1.57-4.4,0-6.47-2.58-6.47-5.38s2.27-5.29,6.39-5.29a7.17,7.17,0,0,1,1.73.17l0-4.68h-7.44V7.7h7.33V3.56h4.54V7.7Zm-8.84,12.77a4.29,4.29,0,0,0-1.85-.39c-1.32,0-2.52.53-2.52,1.7,0,.95.84,1.66,2.35,1.66,2,0,2-1.21,2-1.74Z"/><path class="cls-1" d="M497.13,5.54a10.36,10.36,0,0,1,7.06-2.66c5,0,7.56,3.31,7.56,6.58,0,2.77-1.63,4.23-3,5.49-2.24,2-2.38,2.49-2.38,4.51H502c0-2.94.19-4.28,2.54-6.24s2.83-2.38,2.83-3.59c0-1.57-1.31-2.69-3.41-2.69a7,7,0,0,0-5.32,2.61Zm4.68,15.77h4.7v4.53h-4.7Z"/><path class="cls-2" d="M2.32,11.81V7.59H14.59V3.36H19V7.59h6v4.22H19l0,11.37c0,4-3.42,4-4.74,4-.83,0-1.53,0-3.66-.08L10,22.71c1.49.11,2.72.19,3.33.19s1.29-.11,1.29-.95l0-6.24a32.77,32.77,0,0,1-10.9,8.87L1.06,21.11a35.38,35.38,0,0,0,12-9.3Z"/><path class="cls-2" d="M42,12.54a35.76,35.76,0,0,0-8.73-4.25l2-3.81a35.77,35.77,0,0,1,9.1,4Zm-8.2,9.52c9.41-.81,16.1-4.06,19.32-16.38L57,8.4c-3.75,12.29-10.61,17-22.23,18.48Z"/><path class="cls-2" d="M86.84,10.67c-.39,4.11-1.74,9.74-5.91,12.71-3.31,2.35-8.35,3.44-12.46,3.75l-1.35-4.2c7.65-.39,12.91-2.1,14.4-8.15H64.3V10.67ZM85.07,4V8.09H66.34V4Z"/><path class="cls-2" d="M110.15,27.08h-4.76V15.9a46.35,46.35,0,0,1-9,4l-2.24-4A41.74,41.74,0,0,0,114.13,2.83l4,2.77a50.19,50.19,0,0,1-7.93,7.2Z"/><path class="cls-2" d="M134.33,12.54a35.83,35.83,0,0,0-8.74-4.25l2-3.81a35.92,35.92,0,0,1,9.1,4Zm-8.21,9.52c9.41-.81,16.11-4.06,19.32-16.38l3.92,2.72c-3.75,12.29-10.61,17-22.23,18.48Z"/><path class="cls-2" d="M162.33,11.37A47.7,47.7,0,0,0,173.42,7l2.16,4.17a65,65,0,0,1-13.25,4.53v4.71c0,1.4.31,1.54,2,1.54h7.31a31,31,0,0,0,6.18-.64l.28,4.59a30.55,30.55,0,0,1-5.06.39h-9.61c-1.87,0-5.71-.09-5.71-4.54V4h4.59ZM175,2.18a24.45,24.45,0,0,1,2.85,5.27l-2.24,1.2a24,24,0,0,0-2.71-5.38Zm3.92-1.12a24.33,24.33,0,0,1,2.83,5.29l-2.27,1.21a23.45,23.45,0,0,0-2.66-5.38Z"/><path class="cls-2" d="M202.41,27.27l-4.65.31-.7-7.28-9.77.92L186.9,17l9.74-.93-.33-3.64-8.57.84-.34-4.11,8.49-.85-.48-4.84,4.65-.36.45,4.76,8-.76.39,4.09-7.92.78.33,3.67,9.52-.89.31,4.2-9.41.89Zm4.28-26.18a22.15,22.15,0,0,1,2,5L206.33,7a20.27,20.27,0,0,0-1.88-5Zm4.32,0a22.88,22.88,0,0,1,2,5.29l-2.38.93a22,22,0,0,0-1.87-5.35Z"/><path class="cls-2" d="M242.19,8.65V13l-9,0c-.28,4.2-.7,11-11.09,14.28l-2.6-3.83c3.16-.9,6-2.41,7.42-4.37s1.51-3.59,1.62-6.11h-9.69V8.65h9.75V3.3h4.62V8.65Z"/><path class="cls-2" d="M273.91,12.88V17.5h-24V12.88Z"/><path class="cls-2" d="M298,8.31A28,28,0,0,1,294.1,16a79.25,79.25,0,0,1,8.8,7.54l-3.7,3.72a80.38,80.38,0,0,0-7.81-7.87,33.81,33.81,0,0,1-10.67,7.79l-2.52-3.76A26.25,26.25,0,0,0,293,8.65H279.82V4.42h15.57Zm.53-6.24a24.45,24.45,0,0,1,2.58,5.41L299,8.57a22,22,0,0,0-2.44-5.49Zm3.7-1a25,25,0,0,1,2.54,5.44l-2.12,1.09a23.3,23.3,0,0,0-2.41-5.52Z"/><path class="cls-2" d="M310.28,13.94,310,9.58l5.49-.51V3.25H320V8.68l13.69-1.2c-.37,6.21-2.77,10.16-8.32,12.9L322.68,17c3.67-1.49,4.74-3.31,5.46-4.85L320,13v7.62c0,1.54.28,1.73,2.29,1.73h6.33A23.61,23.61,0,0,0,332.9,22V26.4a33.53,33.53,0,0,1-4.17.25h-7.36c-5.46,0-5.91-3.19-5.91-5.57V13.44Z"/><path class="cls-2" d="M361.86,27.41A91.34,91.34,0,0,0,341.39,24l.84-4.29a92.58,92.58,0,0,1,21.11,3.08Zm-2-9.15a77.38,77.38,0,0,0-17-2.92l.81-4a76.37,76.37,0,0,1,17.05,2.72Zm1.51-7.87a78.39,78.39,0,0,0-18.34-3l.73-4.09a86.65,86.65,0,0,1,18.45,2.52Z"/><path class="cls-2" d="M394.67,8.65V13l-9,0c-.28,4.2-.7,11-11.09,14.28l-2.61-3.83c3.17-.9,6-2.41,7.42-4.37S380.87,15.48,381,13h-9.69V8.65H381V3.3h4.62V8.65Z"/><path class="cls-2" d="M426.39,12.88V17.5h-24V12.88Z"/><path class="cls-2" d="M454.72,13.77c-4.9.45-15.4,2.25-15.4,6.36,0,2.41,3.05,2.52,7.17,2.52a82.91,82.91,0,0,0,9-.47l0,4.56c-1.52.11-4,.31-7.84.31-4.46,0-13.19,0-13.19-6.67,0-3.89,3.58-6.44,6.75-7.95a5.06,5.06,0,0,1-.93-2.49,54.43,54.43,0,0,1-.25-6.67h4.79c0,1-.06,1.8-.06,3.73,0,2.3,0,3.05.51,3.89a50.9,50.9,0,0,1,8.82-1.79Z"/><path class="cls-2" d="M469.68,3.67a51.65,51.65,0,0,0-1.14,12,53.79,53.79,0,0,0,.92,10.87L465,27a71.64,71.64,0,0,1-.78-11.31,65.33,65.33,0,0,1,1-12.35Zm17.78,4v4.2h-4.53l0,5.88a20.74,20.74,0,0,1,5.29,3.7l-2.75,3.89a16.65,16.65,0,0,0-2.82-2.64,4.5,4.5,0,0,1-1.07,2.78c-.86,1-2.52,1.57-4.73,1.57-4.4,0-6.47-2.58-6.47-5.38s2.27-5.29,6.39-5.29a7.17,7.17,0,0,1,1.73.17l0-4.68h-7.44V7.7h7.33V3.56h4.54V7.7Zm-8.84,12.77a4.29,4.29,0,0,0-1.85-.39c-1.32,0-2.52.53-2.52,1.7,0,.95.84,1.66,2.35,1.66,2,0,2-1.21,2-1.74Z"/><path class="cls-2" d="M497.13,5.54a10.36,10.36,0,0,1,7.06-2.66c5,0,7.56,3.31,7.56,6.58,0,2.77-1.63,4.23-3,5.49-2.24,2-2.38,2.49-2.38,4.51H502c0-2.94.19-4.28,2.54-6.24s2.83-2.38,2.83-3.59c0-1.57-1.31-2.69-3.41-2.69a7,7,0,0,0-5.32,2.61Zm4.68,15.77h4.7v4.53h-4.7Z"/></g></g></svg>