<svg xmlns="http://www.w3.org/2000/svg" viewBox="0 0 534.11 62.63"><defs><style>.cls-1,.cls-3{fill:none;stroke-linecap:round;stroke-linejoin:round;}.cls-1{stroke:#595757;stroke-width:2.13px;}.cls-2{fill:#fff;}.cls-3{stroke:#fff;stroke-width:4.25px;}.cls-4{fill:#e60012;}</style></defs><g id="レイヤー_2" data-name="レイヤー 2"><g id="レイヤー_2-2" data-name="レイヤー 2"><path class="cls-1" d="M13,25.93c-1.57.75-2.83,1.26-4.76,2V20.33H7.11c-.22,4.08-1.2,6.13-3.67,8.29L1.06,25.25a5.73,5.73,0,0,0,2.83-4.92H2.52V13.27h11v7.06h-1.8v2.46c.45-.17,2.22-1,2.5-1.15l.16,2.69a4.67,4.67,0,0,0,2-4H15.12V13.27H27.05v7.06h-3V24c0,.36,0,.64.31.64.59,0,.7,0,.7-.47,0-.31,0-1.91.05-2.22l3.17.73c-.09,3.05-.17,5.77-2.44,5.77H22.76a1.8,1.8,0,0,1-2-1.93V20.33h-1c-.22,4.59-1.45,6.35-4.9,8.23Zm-6.83-24h3.92V3.5h3.8V6.91h-1a14.66,14.66,0,0,1-.45,1.82H14v3.48H1.59V8.73H3.72a10.56,10.56,0,0,0-.28-1.82H2.32V3.5H6.19ZM6.3,15.82v2H9.8v-2Zm.5-8.91c.17.65.28,1.26.37,1.82H9a9.91,9.91,0,0,0,.33-1.82Zm12.43-5h4V3.5h4.17V6.91h-1c-.14.51-.34,1.32-.48,1.82h2.19v3.48H14.64V8.73h1.88c0-.11-.17-1.17-.31-1.82H14.76V3.5h4.47ZM19,15.82v2h4.26v-2Zm.9-8.91c.06.31.25,1.57.31,1.82h2a8.92,8.92,0,0,0,.33-1.82Z"/><path class="cls-1" d="M37.17,20.22c-.16,2.93-.61,6.21-2,8.4l-3.5-2.83a14.62,14.62,0,0,0,1.79-6.28Zm11.12-4.57H58c-.06,3.42-.56,9.41-1.51,11a3.11,3.11,0,0,1-2.86,1.74H49l-.7-3.92,3.76.11a.89.89,0,0,0,.81-.44,18.23,18.23,0,0,0,.64-5.24H33.79v-16H57.45V6.41H48.29V7.75h7.76V10.3H48.29v1.35h7.76v2.63H48.29Zm-4-9.24H38.07V7.75h6.19Zm0,3.89H38.07v1.35h6.19Zm0,4H38.07v1.37h6.19ZM41.4,20.44a30.32,30.32,0,0,1,.54,7.11l-3.73.22a32.51,32.51,0,0,0,.28-4.17,15,15,0,0,0-.25-3.16Zm4.65-.25a37.18,37.18,0,0,1,1.21,6.16l-3.45.56a30.33,30.33,0,0,0-.92-6.53Zm5-.51a15.6,15.6,0,0,1,1.1,3.62l-3.25.61a13.67,13.67,0,0,0-1.15-3.84Z"/><path class="cls-1" d="M73.54,20.24a17.13,17.13,0,0,1-3.19,1.82l-.48-.73v.37a59.81,59.81,0,0,1-7.81,2.83l-.45-4.37a24.29,24.29,0,0,0,2.61-.65V12H62V8h2.24V2h4V8h1.57v4H68.19v6.27a13.2,13.2,0,0,0,1.57-.62l0,1.18A10.79,10.79,0,0,0,73.54,16H69.65V12.88H88.58V16H77.32c-.31.51-.45.7-.7,1.07H87.93c0,2-.14,8-.86,9.66a2.54,2.54,0,0,1-2.69,1.68H80.15l-.56-2.72a15.24,15.24,0,0,1-4.68,3.14l-2.38-2.41c5.27-2.24,6.72-5,7.34-6.22H78.61c-1,1.6-3.22,4.71-9.41,6.5l-1.48-2.8c3.19-.84,5-1.6,7.25-3.7ZM70.8,2.74H87v9.13H70.8Zm3.89,2.52V6.52H83V5.26Zm0,3V9.6H83V8.26ZM82.56,25c1,0,1.31-.25,1.51-4.79h-.9A16.74,16.74,0,0,1,80.26,25Z"/><path class="cls-1" d="M102.58,15.2a4.2,4.2,0,1,1-4.2-4.2A4.19,4.19,0,0,1,102.58,15.2Z"/><path class="cls-1" d="M132.4,7V8.29c0,14.89-9.44,18.25-17.81,19l-1.48-4.17c4.25-.37,14.45-1.29,14.53-12H114.93v5.73h-4.34V7h8.51V3.14h4.48V7Z"/><path class="cls-1" d="M153.12,27.07h-4.76V15.9a45.47,45.47,0,0,1-9,4L137.16,16A41.74,41.74,0,0,0,157.1,2.83l4,2.77a50.19,50.19,0,0,1-7.93,7.2Z"/><path class="cls-1" d="M174.64,12.54a35.83,35.83,0,0,0-8.74-4.25l2-3.81a35.92,35.92,0,0,1,9.1,4Zm-8.21,9.52c9.41-.81,16.1-4.06,19.32-16.38l3.92,2.72c-3.75,12.29-10.61,17-22.23,18.48Z"/><path class="cls-1" d="M213.1,8.31A28.23,28.23,0,0,1,209.23,16,79.22,79.22,0,0,1,218,23.57l-3.69,3.73a80.38,80.38,0,0,0-7.81-7.87,33.93,33.93,0,0,1-10.67,7.79l-2.52-3.76A26.22,26.22,0,0,0,208.11,8.65H195V4.42h15.57Zm.53-6.24a23.92,23.92,0,0,1,2.57,5.41l-2.12,1.09a22,22,0,0,0-2.44-5.49Zm3.69-1a24.74,24.74,0,0,1,2.55,5.43l-2.13,1.1a23.28,23.28,0,0,0-2.4-5.52Z"/><path class="cls-1" d="M247.59,8.59c-.86-.05-1.65-.08-2.26-.08a12.73,12.73,0,0,0-3.36.37c-4,1.17-8.46,5.29-8.46,9.24,0,2.63,2.1,4.17,9.27,4.17,1.31,0,2-.06,2.52-.09L244.68,27a36.74,36.74,0,0,1-9-.84c-5.91-1.49-6.75-5.63-6.75-7.78,0-3.81,2.46-7.06,6-9.44-2.49.19-8.85.76-11,1l-.25-4.81c1.82,0,2.66-.09,5.91-.31,6-.39,11.4-.56,17.89-.75Zm-5.68,2.78a24.23,24.23,0,0,1,3.14,5.23L242.58,18a24.51,24.51,0,0,0-3-5.35Zm3.84-1.8A26,26,0,0,1,249,14.75L246.5,16.1a23.87,23.87,0,0,0-3.13-5.29Z"/><path class="cls-1" d="M262.88,12h-7.42V10.3h-2.78V3.7H263V2.07h4.28V3.7h10.45v6.6h-3V12h-7.81v1.21h8.87v3h-9.1a11.69,11.69,0,0,1-.22,1.23h11.87v3.64h-8.82c.81.93,2.35,2.58,9,3.31l-1.71,4.17c-2.72-.5-8.82-1.79-11.73-6.83a11.12,11.12,0,0,1-1.32,1.93c-2.72,2.8-6.5,4.17-10.39,4.93L251.7,24.5c1.68-.23,7.2-.9,9.24-3.42h-9V17.44h10.5c.05-.33.11-.53.22-1.23h-8.23v-3h8.43Zm0-4.79h-6.14V8.79h6.14Zm4.06,1.57h6.63V7.22h-6.63Z"/><path class="cls-1" d="M291.34,6.07a11.25,11.25,0,0,0,2.3-4.22l3.52.28c-.25.64-.28.72-.39,1h2.07c0-.14,0-.28,0-.39l3.24-.56c.09.53.12.62.17.9h6.58V7a16.6,16.6,0,0,1-2.46,3.86,16.55,16.55,0,0,0,3.11,2.38l-2.41,3.31a12.6,12.6,0,0,1-2.3-1.93v1H295.2V14.48a22.69,22.69,0,0,1-2.43,1.93l-2-3a9.09,9.09,0,0,0,2.77-1.85c-.55-.47-1.12-.95-1.65-1.32a3.86,3.86,0,0,1-.61.45l-.73-1.15c-.25.87-.53,1.77-.84,2.55a16,16,0,0,1,2,7.17c0,2.72-1.48,4.31-3.41,4.31h-.81L286.64,20v8.49h-3.73V2.74h8.43ZM287.56,19.6c.7,0,.78-.48.78-1.2a11.46,11.46,0,0,0-1.59-5.75,40,40,0,0,0,1.4-6.16h-1.51V19.6Zm9.24,3a16.5,16.5,0,0,1-1.32,2.05l1.8,0c.64,0,.64-.39.64-.75V20.75h-6V17.14h16.52v3.61h-6.61V26a2.16,2.16,0,0,1-2.41,2.41h-3.75l-.64-3.2a15.56,15.56,0,0,1-3.25,2.89L289,25.4a11,11,0,0,0,4.73-4.46ZM295.51,9.27c-.42-.26-.56-.34-1.71-1a7.6,7.6,0,0,0-.56.67c.59.36,1.07.67,1.68,1.09C295.12,9.8,295.26,9.6,295.51,9.27Zm-.28-3.08a5.93,5.93,0,0,1-.42.64,11.55,11.55,0,0,1,1.65.84c.42-.87.54-1.2.65-1.48Zm7.39,5.9a20.67,20.67,0,0,1-2.57-4.61,17.42,17.42,0,0,1-2.66,4.61Zm4.18,16.13a14.28,14.28,0,0,1-4.2-5.54l3.1-1.79a14.4,14.4,0,0,0,3.73,4.39Zm-3.64-22a11.28,11.28,0,0,0,1.17,2.24,10.56,10.56,0,0,0,1.35-2.24Z"/><path class="cls-1" d="M319.8,3.86a67.06,67.06,0,0,0-1.1,12.88,52.68,52.68,0,0,0,.76,10l-4.68.31a52.67,52.67,0,0,1-.67-9.52,93.5,93.5,0,0,1,1-14ZM327,16.1a5.92,5.92,0,0,0-1.34,3.16c0,1.82,2.07,2,4.53,2,.87,0,4.26-.06,6.67-.34l.08,4.54a38.53,38.53,0,0,1-5.12.28c-5.94,0-10.28-.84-10.28-5.83A9.28,9.28,0,0,1,323,15Zm9.41-10.67V9.8h-14V5.43Z"/><path class="cls-1" d="M345.3,9.38a17.64,17.64,0,0,0-1.09-2.47c-.42,0-1,0-1.37,0L342,3.16c.89,0,2,.09,3.75.09a129.14,129.14,0,0,0,19.8-1.49l1.9,3.62c-.9.19-1.06.19-2.63.42l.84.11a28.36,28.36,0,0,1-1.57,3.47h3.33v7.73h-3.55v1.06A19.17,19.17,0,0,1,359.55,23a45.86,45.86,0,0,0,8.71,1.12l-1.73,4.48a46.64,46.64,0,0,1-11.74-2.83A42,42,0,0,1,343,28.5l-1.68-4.39a40.23,40.23,0,0,0,8.52-1.1,14.91,14.91,0,0,1-3.56-3.55l3.39-1.29h-4.17V17.11h-3.45V9.38ZM363.17,13H346.28v1.54h16.89ZM352.86,9.38a22.64,22.64,0,0,0-1-2.61c-.73,0-2.07.09-3.16.09,0,.11.73,1.65,1.06,2.52Zm-2.32,8.79a15.42,15.42,0,0,0,4,3,17.58,17.58,0,0,0,3.81-3Zm9-8.79a20.2,20.2,0,0,0,1.35-3.16l-4.6.33c.65,1.88.7,2.1.9,2.83Z"/><path class="cls-1" d="M381.31,6.69v3.36h-9.63V6.69Zm-.53-4.14V5.82h-8.37V2.55Zm0,8.4v3.27h-8.37V11Zm0,4.2v3.22h-8.37V15.15Zm0,4.14v8.82h-8.37V19.29Zm-3,3.08h-2v2.44h2Zm4.31,6.08V24.16h-.81v-3h.81v-7h5.71v-1h-6.47V10.3h3v-1h-2V7h2V6h-2.83V3h2.83V2h3.52V3h3.42V2H395V3h2.72V6H395V7h1.88V9.3H395v1h3.19v2.86h-6.91v1H397v7h1.12v3H397v2a2,2,0,0,1-2.15,2.27h-4.32L390,25.34h2.83c.31,0,.67,0,.67-.45v-.73H385.6v4.29Zm5.71-11.85H385.6v1.18h2.18Zm0,3.39H385.6v1.2h2.18Zm3.5-14h-3.42V7h3.42Zm0,3.25h-3.42V10.3h3.42Zm2.21,7.36h-2.26v1.18h2.26Zm0,3.39h-2.26v1.2h2.26Z"/><path class="cls-1" d="M409.32,3.44c-.22,4-.42,13.08-.42,14,0,3.11.39,5.41,4.28,5.41,6.19,0,7.12-5.13,7.73-8.54l4.17,2c-1.7,8.14-5.85,10.89-11.9,10.89-7.61,0-8.84-4.31-8.84-9.89,0-2.21.11-12,.14-13.94Z"/><path class="cls-1" d="M451.2,8.59c-.87-.05-1.65-.08-2.27-.08a12.82,12.82,0,0,0-3.36.37c-4,1.17-8.45,5.29-8.45,9.24,0,2.63,2.1,4.17,9.26,4.17,1.32,0,2-.06,2.52-.09L448.29,27a36.82,36.82,0,0,1-9.05-.84c-5.9-1.49-6.74-5.63-6.74-7.78,0-3.81,2.46-7.06,6-9.44-2.49.19-8.85.76-11,1l-.25-4.81c1.82,0,2.66-.09,5.91-.31,6-.39,11.39-.56,17.89-.75Z"/><path class="cls-1" d="M466.1,24.3c4.37-2.46,5.13-4.9,5.71-6.74a22.37,22.37,0,0,0-4.2-1.13c-1,3.87-2.46,9.22-7.36,9.22a4.93,4.93,0,0,1-5.12-5.32c0-4.2,3.36-7.65,8.9-8,.25-1.46.5-3.89.53-4.42L456.81,8V3.7h12.74c-.54,4.05-.59,4.56-1.15,8.7a25.38,25.38,0,0,1,4.28.87c.31-2.27.48-4.06.56-5.52l4.71.37c-.17,2.15-.42,4.51-.79,6.66a16.84,16.84,0,0,1,3.17,1.6L478.87,21c-1.71-1-2-1.2-2.8-1.6A13.21,13.21,0,0,1,469,27.55ZM459,20.07c0,.73.25,1.38,1.2,1.38s2-.76,3.14-5.24C460.42,16.41,459,18.31,459,20.07Z"/><path class="cls-1" d="M498.55,16.55A28.26,28.26,0,0,1,508.1,22L505,26.35a32.65,32.65,0,0,0-6.61-5v1.06c0,1.68-1,4.76-6.46,4.76-5.77,0-7.43-3.28-7.43-5.6,0-3.7,3.7-5.94,8.13-5.94a7.17,7.17,0,0,1,1.26.09L493.82,3.3h4.73V7.14h8.51v4.45h-8.51Zm-4.65,3.19a6.9,6.9,0,0,0-1.73-.23c-1.54,0-3.25.59-3.25,2,0,.84.78,1.6,2.46,1.6s2.52-.7,2.52-1.74Z"/><path class="cls-1" d="M516.11,23.32c5.63-.19,12.15-.56,12.15-6.18,0-2.89-1.76-3.17-3.67-3.17a96.36,96.36,0,0,0-10.5,1.51l-.7-4.7c6.83-.73,9.72-1,11.9-1,3.7,0,7.76,1,7.76,7.22,0,9.61-10.14,10.25-15.57,10.5ZM529.8,8.68a53.31,53.31,0,0,0-13.33-1.82l.59-4a70.58,70.58,0,0,1,13.66,1.54Z"/><path class="cls-2" d="M13,25.93c-1.57.75-2.83,1.26-4.76,2V20.33H7.11c-.22,4.08-1.2,6.13-3.67,8.29L1.06,25.25a5.73,5.73,0,0,0,2.83-4.92H2.52V13.27h11v7.06h-1.8v2.46c.45-.17,2.22-1,2.5-1.15l.16,2.69a4.67,4.67,0,0,0,2-4H15.12V13.27H27.05v7.06h-3V24c0,.36,0,.64.31.64.59,0,.7,0,.7-.47,0-.31,0-1.91.05-2.22l3.17.73c-.09,3.05-.17,5.77-2.44,5.77H22.76a1.8,1.8,0,0,1-2-1.93V20.33h-1c-.22,4.59-1.45,6.35-4.9,8.23Zm-6.83-24h3.92V3.5h3.8V6.91h-1a14.66,14.66,0,0,1-.45,1.82H14v3.48H1.59V8.73H3.72a10.56,10.56,0,0,0-.28-1.82H2.32V3.5H6.19ZM6.3,15.82v2H9.8v-2Zm.5-8.91c.17.65.28,1.26.37,1.82H9a9.91,9.91,0,0,0,.33-1.82Zm12.43-5h4V3.5h4.17V6.91h-1c-.14.51-.34,1.32-.48,1.82h2.19v3.48H14.64V8.73h1.88c0-.11-.17-1.17-.31-1.82H14.76V3.5h4.47ZM19,15.82v2h4.26v-2Zm.9-8.91c.06.31.25,1.57.31,1.82h2a8.92,8.92,0,0,0,.33-1.82Z"/><path class="cls-2" d="M37.17,20.22c-.16,2.93-.61,6.21-2,8.4l-3.5-2.83a14.62,14.62,0,0,0,1.79-6.28Zm11.12-4.57H58c-.06,3.42-.56,9.41-1.51,11a3.11,3.11,0,0,1-2.86,1.74H49l-.7-3.92,3.76.11a.89.89,0,0,0,.81-.44,18.23,18.23,0,0,0,.64-5.24H33.79v-16H57.45V6.41H48.29V7.75h7.76V10.3H48.29v1.35h7.76v2.63H48.29Zm-4-9.24H38.07V7.75h6.19Zm0,3.89H38.07v1.35h6.19Zm0,4H38.07v1.37h6.19ZM41.4,20.44a30.32,30.32,0,0,1,.54,7.11l-3.73.22a32.51,32.51,0,0,0,.28-4.17,15,15,0,0,0-.25-3.16Zm4.65-.25a37.18,37.18,0,0,1,1.21,6.16l-3.45.56a30.33,30.33,0,0,0-.92-6.53Zm5-.51a15.6,15.6,0,0,1,1.1,3.62l-3.25.61a13.67,13.67,0,0,0-1.15-3.84Z"/><path class="cls-2" d="M73.54,20.24a17.13,17.13,0,0,1-3.19,1.82l-.48-.73v.37a59.81,59.81,0,0,1-7.81,2.83l-.45-4.37a24.29,24.29,0,0,0,2.61-.65V12H62V8h2.24V2h4V8h1.57v4H68.19v6.27a13.2,13.2,0,0,0,1.57-.62l0,1.18A10.79,10.79,0,0,0,73.54,16H69.65V12.88H88.58V16H77.32c-.31.51-.45.7-.7,1.07H87.93c0,2-.14,8-.86,9.66a2.54,2.54,0,0,1-2.69,1.68H80.15l-.56-2.72a15.24,15.24,0,0,1-4.68,3.14l-2.38-2.41c5.27-2.24,6.72-5,7.34-6.22H78.61c-1,1.6-3.22,4.71-9.41,6.5l-1.48-2.8c3.19-.84,5-1.6,7.25-3.7ZM70.8,2.74H87v9.13H70.8Zm3.89,2.52V6.52H83V5.26Zm0,3V9.6H83V8.26ZM82.56,25c1,0,1.31-.25,1.51-4.79h-.9A16.74,16.74,0,0,1,80.26,25Z"/><path class="cls-2" d="M102.58,15.2a4.2,4.2,0,1,1-4.2-4.2A4.19,4.19,0,0,1,102.58,15.2Z"/><path class="cls-2" d="M132.4,7V8.29c0,14.89-9.44,18.25-17.81,19l-1.48-4.17c4.25-.37,14.45-1.29,14.53-12H114.93v5.73h-4.34V7h8.51V3.14h4.48V7Z"/><path class="cls-2" d="M153.12,27.07h-4.76V15.9a45.47,45.47,0,0,1-9,4L137.16,16A41.74,41.74,0,0,0,157.1,2.83l4,2.77a50.19,50.19,0,0,1-7.93,7.2Z"/><path class="cls-2" d="M174.64,12.54a35.83,35.83,0,0,0-8.74-4.25l2-3.81a35.92,35.92,0,0,1,9.1,4Zm-8.21,9.52c9.41-.81,16.1-4.06,19.32-16.38l3.92,2.72c-3.75,12.29-10.61,17-22.23,18.48Z"/><path class="cls-2" d="M213.1,8.31A28.23,28.23,0,0,1,209.23,16,79.22,79.22,0,0,1,218,23.57l-3.69,3.73a80.38,80.38,0,0,0-7.81-7.87,33.93,33.93,0,0,1-10.67,7.79l-2.52-3.76A26.22,26.22,0,0,0,208.11,8.65H195V4.42h15.57Zm.53-6.24a23.92,23.92,0,0,1,2.57,5.41l-2.12,1.09a22,22,0,0,0-2.44-5.49Zm3.69-1a24.74,24.74,0,0,1,2.55,5.43l-2.13,1.1a23.28,23.28,0,0,0-2.4-5.52Z"/><path class="cls-2" d="M247.59,8.59c-.86-.05-1.65-.08-2.26-.08a12.73,12.73,0,0,0-3.36.37c-4,1.17-8.46,5.29-8.46,9.24,0,2.63,2.1,4.17,9.27,4.17,1.31,0,2-.06,2.52-.09L244.68,27a36.74,36.74,0,0,1-9-.84c-5.91-1.49-6.75-5.63-6.75-7.78,0-3.81,2.46-7.06,6-9.44-2.49.19-8.85.76-11,1l-.25-4.81c1.82,0,2.66-.09,5.91-.31,6-.39,11.4-.56,17.89-.75Zm-5.68,2.78a24.23,24.23,0,0,1,3.14,5.23L242.58,18a24.51,24.51,0,0,0-3-5.35Zm3.84-1.8A26,26,0,0,1,249,14.75L246.5,16.1a23.87,23.87,0,0,0-3.13-5.29Z"/><path class="cls-2" d="M262.88,12h-7.42V10.3h-2.78V3.7H263V2.07h4.28V3.7h10.45v6.6h-3V12h-7.81v1.21h8.87v3h-9.1a11.69,11.69,0,0,1-.22,1.23h11.87v3.64h-8.82c.81.93,2.35,2.58,9,3.31l-1.71,4.17c-2.72-.5-8.82-1.79-11.73-6.83a11.12,11.12,0,0,1-1.32,1.93c-2.72,2.8-6.5,4.17-10.39,4.93L251.7,24.5c1.68-.23,7.2-.9,9.24-3.42h-9V17.44h10.5c.05-.33.11-.53.22-1.23h-8.23v-3h8.43Zm0-4.79h-6.14V8.79h6.14Zm4.06,1.57h6.63V7.22h-6.63Z"/><path class="cls-2" d="M291.34,6.07a11.25,11.25,0,0,0,2.3-4.22l3.52.28c-.25.64-.28.72-.39,1h2.07c0-.14,0-.28,0-.39l3.24-.56c.09.53.12.62.17.9h6.58V7a16.6,16.6,0,0,1-2.46,3.86,16.55,16.55,0,0,0,3.11,2.38l-2.41,3.31a12.6,12.6,0,0,1-2.3-1.93v1H295.2V14.48a22.69,22.69,0,0,1-2.43,1.93l-2-3a9.09,9.09,0,0,0,2.77-1.85c-.55-.47-1.12-.95-1.65-1.32a3.86,3.86,0,0,1-.61.45l-.73-1.15c-.25.87-.53,1.77-.84,2.55a16,16,0,0,1,2,7.17c0,2.72-1.48,4.31-3.41,4.31h-.81L286.64,20v8.49h-3.73V2.74h8.43ZM287.56,19.6c.7,0,.78-.48.78-1.2a11.46,11.46,0,0,0-1.59-5.75,40,40,0,0,0,1.4-6.16h-1.51V19.6Zm9.24,3a16.5,16.5,0,0,1-1.32,2.05l1.8,0c.64,0,.64-.39.64-.75V20.75h-6V17.14h16.52v3.61h-6.61V26a2.16,2.16,0,0,1-2.41,2.41h-3.75l-.64-3.2a15.56,15.56,0,0,1-3.25,2.89L289,25.4a11,11,0,0,0,4.73-4.46ZM295.51,9.27c-.42-.26-.56-.34-1.71-1a7.6,7.6,0,0,0-.56.67c.59.36,1.07.67,1.68,1.09C295.12,9.8,295.26,9.6,295.51,9.27Zm-.28-3.08a5.93,5.93,0,0,1-.42.64,11.55,11.55,0,0,1,1.65.84c.42-.87.54-1.2.65-1.48Zm7.39,5.9a20.67,20.67,0,0,1-2.57-4.61,17.42,17.42,0,0,1-2.66,4.61Zm4.18,16.13a14.28,14.28,0,0,1-4.2-5.54l3.1-1.79a14.4,14.4,0,0,0,3.73,4.39Zm-3.64-22a11.28,11.28,0,0,0,1.17,2.24,10.56,10.56,0,0,0,1.35-2.24Z"/><path class="cls-2" d="M319.8,3.86a67.06,67.06,0,0,0-1.1,12.88,52.68,52.68,0,0,0,.76,10l-4.68.31a52.67,52.67,0,0,1-.67-9.52,93.5,93.5,0,0,1,1-14ZM327,16.1a5.92,5.92,0,0,0-1.34,3.16c0,1.82,2.07,2,4.53,2,.87,0,4.26-.06,6.67-.34l.08,4.54a38.53,38.53,0,0,1-5.12.28c-5.94,0-10.28-.84-10.28-5.83A9.28,9.28,0,0,1,323,15Zm9.41-10.67V9.8h-14V5.43Z"/><path class="cls-2" d="M345.3,9.38a17.64,17.64,0,0,0-1.09-2.47c-.42,0-1,0-1.37,0L342,3.16c.89,0,2,.09,3.75.09a129.14,129.14,0,0,0,19.8-1.49l1.9,3.62c-.9.19-1.06.19-2.63.42l.84.11a28.36,28.36,0,0,1-1.57,3.47h3.33v7.73h-3.55v1.06A19.17,19.17,0,0,1,359.55,23a45.86,45.86,0,0,0,8.71,1.12l-1.73,4.48a46.64,46.64,0,0,1-11.74-2.83A42,42,0,0,1,343,28.5l-1.68-4.39a40.23,40.23,0,0,0,8.52-1.1,14.91,14.91,0,0,1-3.56-3.55l3.39-1.29h-4.17V17.11h-3.45V9.38ZM363.17,13H346.28v1.54h16.89ZM352.86,9.38a22.64,22.64,0,0,0-1-2.61c-.73,0-2.07.09-3.16.09,0,.11.73,1.65,1.06,2.52Zm-2.32,8.79a15.42,15.42,0,0,0,4,3,17.58,17.58,0,0,0,3.81-3Zm9-8.79a20.2,20.2,0,0,0,1.35-3.16l-4.6.33c.65,1.88.7,2.1.9,2.83Z"/><path class="cls-2" d="M381.31,6.69v3.36h-9.63V6.69Zm-.53-4.14V5.82h-8.37V2.55Zm0,8.4v3.27h-8.37V11Zm0,4.2v3.22h-8.37V15.15Zm0,4.14v8.82h-8.37V19.29Zm-3,3.08h-2v2.44h2Zm4.31,6.08V24.16h-.81v-3h.81v-7h5.71v-1h-6.47V10.3h3v-1h-2V7h2V6h-2.83V3h2.83V2h3.52V3h3.42V2H395V3h2.72V6H395V7h1.88V9.3H395v1h3.19v2.86h-6.91v1H397v7h1.12v3H397v2a2,2,0,0,1-2.15,2.27h-4.32L390,25.34h2.83c.31,0,.67,0,.67-.45v-.73H385.6v4.29Zm5.71-11.85H385.6v1.18h2.18Zm0,3.39H385.6v1.2h2.18Zm3.5-14h-3.42V7h3.42Zm0,3.25h-3.42V10.3h3.42Zm2.21,7.36h-2.26v1.18h2.26Zm0,3.39h-2.26v1.2h2.26Z"/><path class="cls-2" d="M409.32,3.44c-.22,4-.42,13.08-.42,14,0,3.11.39,5.41,4.28,5.41,6.19,0,7.12-5.13,7.73-8.54l4.17,2c-1.7,8.14-5.85,10.89-11.9,10.89-7.61,0-8.84-4.31-8.84-9.89,0-2.21.11-12,.14-13.94Z"/><path class="cls-2" d="M451.2,8.59c-.87-.05-1.65-.08-2.27-.08a12.82,12.82,0,0,0-3.36.37c-4,1.17-8.45,5.29-8.45,9.24,0,2.63,2.1,4.17,9.26,4.17,1.32,0,2-.06,2.52-.09L448.29,27a36.82,36.82,0,0,1-9.05-.84c-5.9-1.49-6.74-5.63-6.74-7.78,0-3.81,2.46-7.06,6-9.44-2.49.19-8.85.76-11,1l-.25-4.81c1.82,0,2.66-.09,5.91-.31,6-.39,11.39-.56,17.89-.75Z"/><path class="cls-2" d="M466.1,24.3c4.37-2.46,5.13-4.9,5.71-6.74a22.37,22.37,0,0,0-4.2-1.13c-1,3.87-2.46,9.22-7.36,9.22a4.93,4.93,0,0,1-5.12-5.32c0-4.2,3.36-7.65,8.9-8,.25-1.46.5-3.89.53-4.42L456.81,8V3.7h12.74c-.54,4.05-.59,4.56-1.15,8.7a25.38,25.38,0,0,1,4.28.87c.31-2.27.48-4.06.56-5.52l4.71.37c-.17,2.15-.42,4.51-.79,6.66a16.84,16.84,0,0,1,3.17,1.6L478.87,21c-1.71-1-2-1.2-2.8-1.6A13.21,13.21,0,0,1,469,27.55ZM459,20.07c0,.73.25,1.38,1.2,1.38s2-.76,3.14-5.24C460.42,16.41,459,18.31,459,20.07Z"/><path class="cls-2" d="M498.55,16.55A28.26,28.26,0,0,1,508.1,22L505,26.35a32.65,32.65,0,0,0-6.61-5v1.06c0,1.68-1,4.76-6.46,4.76-5.77,0-7.43-3.28-7.43-5.6,0-3.7,3.7-5.94,8.13-5.94a7.17,7.17,0,0,1,1.26.09L493.82,3.3h4.73V7.14h8.51v4.45h-8.51Zm-4.65,3.19a6.9,6.9,0,0,0-1.73-.23c-1.54,0-3.25.59-3.25,2,0,.84.78,1.6,2.46,1.6s2.52-.7,2.52-1.74Z"/><path class="cls-2" d="M516.11,23.32c5.63-.19,12.15-.56,12.15-6.18,0-2.89-1.76-3.17-3.67-3.17a96.36,96.36,0,0,0-10.5,1.51l-.7-4.7c6.83-.73,9.72-1,11.9-1,3.7,0,7.76,1,7.76,7.22,0,9.61-10.14,10.25-15.57,10.5ZM529.8,8.68a53.31,53.31,0,0,0-13.33-1.82l.59-4a70.58,70.58,0,0,1,13.66,1.54Z"/><path class="cls-3" d="M205.4,58l-.67-.67,6.83-6.8-6.83-6.8.67-.67,6.81,6.82L219,43l.67.67-6.82,6.8,6.82,6.8L219,58l-6.8-6.82Zm2.84-7.47a1.76,1.76,0,1,1-1.75-1.74A1.75,1.75,0,0,1,208.24,50.49ZM214,44.78A1.75,1.75,0,1,1,212.21,43,1.75,1.75,0,0,1,214,44.78Zm0,11.42a1.75,1.75,0,1,1-1.74-1.74A1.75,1.75,0,0,1,214,56.2Zm5.73-5.71a1.76,1.76,0,1,1-1.76-1.74A1.75,1.75,0,0,1,219.68,50.49Z"/><path class="cls-3" d="M224.11,55.8a19.42,19.42,0,0,0,2.4-.52V50.47h-1.87V48h1.87V44h-2.15V41.57h6.72V44H229v4h1.77v2.44H229v4.07c1.24-.4,1.66-.59,2.1-.75l.34,2.37a39.36,39.36,0,0,1-6.82,2.22Zm7.79-14.59h11.7V53.32h-3.49V57c0,.52,0,.69.67.69h.66c.48,0,.75,0,.77-2.75l2.21.44c-.19,4.41-.55,4.81-2.33,4.81h-2.46c-1.3,0-2-.15-2-2v-4.9h-1.19c-.4,4-2.75,5.86-6.51,7.19l-1.32-2.46c2.33-.61,5.08-1.89,5.39-4.73H231.9Zm2.5,2.2v1.37h6.66V43.41Zm0,3.22V48h6.66V46.63Zm0,3.19V51.2h6.66V49.82Z"/><path class="cls-3" d="M250.38,52.74a18.86,18.86,0,0,1-2,1.49l-1.17-2.67a14.53,14.53,0,0,0,5.48-6.17h-5.08V42.87h6.13a20.61,20.61,0,0,0,.65-2.4h3c-.19.7-.32,1.22-.74,2.4h10.69v2.52H255.65a26.28,26.28,0,0,1-2.59,4.39V60.4h-2.68Zm16.37-3.32v2.5h-4.83v5.37h5.42v2.52H253.86V57.29h5.44V51.92h-4.79v-2.5h4.79V46.08h2.62v3.34Z"/><path class="cls-3" d="M272.53,50.66a9.42,9.42,0,0,1-1.32,1.45l-.84-3.45a15.29,15.29,0,0,0,3.47-8.1l2.66.25a20.5,20.5,0,0,1-1.4,5.25V60.4h-2.57Zm2.75,4.81a24.75,24.75,0,0,0,5.78-8.55h-4.81V44.38h5.6v-3.8h2.61v3.8h6v2.54h-5.25a22.66,22.66,0,0,0,5.61,8.4L289.12,58a18.9,18.9,0,0,1-4.66-7.29v9.7h-2.61v-10A25.08,25.08,0,0,1,277,57.92Z"/><path class="cls-3" d="M305.7,40.62v6.13h6.74V49.4H305.7V57h7.69v2.65h-19.7V57h2.73V44h2.69V57H303V40.62Z"/><path class="cls-3" d="M324.54,44V40.58h2.67V44H335V54.65h-7.81v5.73h-2.67V54.65h-7.68V44Zm0,2.58h-5v5.49h5Zm7.81,0h-5.14v5.49h5.14Z"/><path class="cls-4" d="M205.4,58l-.67-.67,6.83-6.8-6.83-6.8.67-.67,6.81,6.82L219,43l.67.67-6.82,6.8,6.82,6.8L219,58l-6.8-6.82Zm2.84-7.47a1.76,1.76,0,1,1-1.75-1.74A1.75,1.75,0,0,1,208.24,50.49ZM214,44.78A1.75,1.75,0,1,1,212.21,43,1.75,1.75,0,0,1,214,44.78Zm0,11.42a1.75,1.75,0,1,1-1.74-1.74A1.75,1.75,0,0,1,214,56.2Zm5.73-5.71a1.76,1.76,0,1,1-1.76-1.74A1.75,1.75,0,0,1,219.68,50.49Z"/><path class="cls-4" d="M224.11,55.8a19.42,19.42,0,0,0,2.4-.52V50.47h-1.87V48h1.87V44h-2.15V41.57h6.72V44H229v4h1.77v2.44H229v4.07c1.24-.4,1.66-.59,2.1-.75l.34,2.37a39.36,39.36,0,0,1-6.82,2.22Zm7.79-14.59h11.7V53.32h-3.49V57c0,.52,0,.69.67.69h.66c.48,0,.75,0,.77-2.75l2.21.44c-.19,4.41-.55,4.81-2.33,4.81h-2.46c-1.3,0-2-.15-2-2v-4.9h-1.19c-.4,4-2.75,5.86-6.51,7.19l-1.32-2.46c2.33-.61,5.08-1.89,5.39-4.73H231.9Zm2.5,2.2v1.37h6.66V43.41Zm0,3.22V48h6.66V46.63Zm0,3.19V51.2h6.66V49.82Z"/><path class="cls-4" d="M250.38,52.74a18.86,18.86,0,0,1-2,1.49l-1.17-2.67a14.53,14.53,0,0,0,5.48-6.17h-5.08V42.87h6.13a20.61,20.61,0,0,0,.65-2.4h3c-.19.7-.32,1.22-.74,2.4h10.69v2.52H255.65a26.28,26.28,0,0,1-2.59,4.39V60.4h-2.68Zm16.37-3.32v2.5h-4.83v5.37h5.42v2.52H253.86V57.29h5.44V51.92h-4.79v-2.5h4.79V46.08h2.62v3.34Z"/><path class="cls-4" d="M272.53,50.66a9.42,9.42,0,0,1-1.32,1.45l-.84-3.45a15.29,15.29,0,0,0,3.47-8.1l2.66.25a20.5,20.5,0,0,1-1.4,5.25V60.4h-2.57Zm2.75,4.81a24.75,24.75,0,0,0,5.78-8.55h-4.81V44.38h5.6v-3.8h2.61v3.8h6v2.54h-5.25a22.66,22.66,0,0,0,5.61,8.4L289.12,58a18.9,18.9,0,0,1-4.66-7.29v9.7h-2.61v-10A25.08,25.08,0,0,1,277,57.92Z"/><path class="cls-4" d="M305.7,40.62v6.13h6.74V49.4H305.7V57h7.69v2.65h-19.7V57h2.73V44h2.69V57H303V40.62Z"/><path class="cls-4" d="M324.54,44V40.58h2.67V44H335V54.65h-7.81v5.73h-2.67V54.65h-7.68V44Zm0,2.58h-5v5.49h5Zm7.81,0h-5.14v5.49h5.14Z"/></g></g></svg>