<svg xmlns="http://www.w3.org/2000/svg" viewBox="0 0 159.1 29.59"><defs><style>.cls-1{fill:none;stroke:#595757;stroke-linecap:round;stroke-linejoin:round;stroke-width:2.13px;}.cls-2{fill:#fff;}</style></defs><g id="レイヤー_2" data-name="レイヤー 2"><g id="レイヤー_2-2" data-name="レイヤー 2"><path class="cls-1" d="M15.4,27.24c-.9.09-5.29.4-6.27.45L1.29,28l-.23-3.28c.84,0,5-.11,5.91-.13V23.27H1.68v-2.8H7v-1H1.85V10H7V9.1H1.17V6.19H7V5.35c-1.32,0-4,.08-5.21.05L1.4,2.52c2.52,0,9.52,0,13.49-.81l1,2.91c-1,.14-1.73.25-5.2.53v1h5.68v.67H18V1.93h4.06V6.86h5.1c0,1.18,0,15.54-.81,18.7-.42,1.57-1,2.86-3.28,2.86H20.22l-.71-4.09a16.41,16.41,0,0,1-2.71,4.15Zm-10.19-15v1.49H7V12.23Zm0,3.37v1.45H7V15.6ZM16.32,11V9.1H10.67V10h5.12v9.52H10.67v1H16V22c.9-1.68,1.85-4.2,2-11Zm-5.65,1.23v1.49h1.82V12.23Zm0,3.37v1.45h1.82V15.6Zm0,7.67v1.15c1.65-.12,2.15-.15,4-.26.33-.44.45-.64.61-.89Zm10.83.87c1,0,1.15-.23,1.32-1.43.2-1.37.34-3.56.5-11.71H22.06c-.14,3.92-.64,9.08-2.43,13.14Z"/><path class="cls-1" d="M60.6,6.52H49.09V8.09h5.38V22.73H40.27V8.09h5.38V6.52H34.09V2.72H60.6ZM39,7.76V24H55.67V7.76h3.9V27.69H35.12V7.76Zm6.69,3.64H43.58v2.4h2.07Zm0,5.51H43.58v2.55h2.07Zm5.54-5.51h-2.1v2.4h2.1Zm0,5.51h-2.1v2.55h2.1Z"/><path class="cls-1" d="M91.42,8.6c-.87-.06-1.65-.09-2.27-.09a12.82,12.82,0,0,0-3.36.37c-4,1.17-8.45,5.29-8.45,9.24,0,2.63,2.1,4.17,9.26,4.17,1.32,0,2-.06,2.52-.09L88.51,27a36.35,36.35,0,0,1-9.05-.84c-5.9-1.49-6.74-5.63-6.74-7.78,0-3.81,2.46-7.06,6-9.44-2.49.2-8.85.76-11,1l-.25-4.82c1.82,0,2.66-.08,5.91-.31,6-.39,11.39-.56,17.89-.75Zm-5.68,2.77a24.22,24.22,0,0,1,3.13,5.23L86.41,18a24.14,24.14,0,0,0-3-5.35Zm3.83-1.79a25.46,25.46,0,0,1,3.25,5.18L90.33,16.1a23.91,23.91,0,0,0-3.14-5.29Z"/><path class="cls-1" d="M102,6.05a23,23,0,0,0-1.71-3L104.52,2a17.57,17.57,0,0,1,2.13,4.06h3.42a22.39,22.39,0,0,0-1.57-3.31l4.25-1a22.28,22.28,0,0,1,1.82,4.29h2.55a23.27,23.27,0,0,0,1.68-4.17l4.51,1a22.22,22.22,0,0,1-1.6,3.2h2.69V13h-3.55v1.52a33.29,33.29,0,0,1-5.8,3.36h10v3.8H114v4a2.61,2.61,0,0,1-2.71,2.88h-6l-.7-4.06h4c.76,0,1-.08,1-1.06V21.64H98.42v-3.8h11.17v-1.4h1.09A8.13,8.13,0,0,0,113.29,15H102.67V13H99.09V6.05Zm18.23,3.67H103.29v1.54h16.94Z"/><path class="cls-1" d="M131.1,24.08c1.77-3.33,2.1-6.3,2.41-11.59l4.23.47c-.22,7.54-1.65,11.54-2.35,12.94ZM148.8,10c-2.32.14-4.09,1.34-4.09,2.88,0,1,.45,1.51,1.91,3.19a8.42,8.42,0,0,1,2.4,5.57,5.4,5.4,0,0,1-5.57,5.6,13.82,13.82,0,0,1-5.54-1.34l.33-4.28a11.33,11.33,0,0,0,4.29,1.11A1.61,1.61,0,0,0,144.32,21c0-1.15-.47-1.77-1.88-3.42-1.59-1.87-2.09-2.94-2.09-4.39A5,5,0,0,1,144,8.34a29.64,29.64,0,0,0-7.75-1.06l.87-4.17a37.66,37.66,0,0,1,12.76,2.32Zm2.83,15.81a34,34,0,0,0-2.58-13.1l4.12-1c.84,1.51,2.66,5.85,3.25,13.16Zm-.06-23.65a23.94,23.94,0,0,1,2.58,5.43l-2.3,1.09a23.86,23.86,0,0,0-2.43-5.49Zm3.9-1.1A25.26,25.26,0,0,1,158,6.5l-2.32,1.09a21.42,21.42,0,0,0-2.44-5.49Z"/><path class="cls-2" d="M15.4,27.24c-.9.09-5.29.4-6.27.45L1.29,28l-.23-3.28c.84,0,5-.11,5.91-.13V23.27H1.68v-2.8H7v-1H1.85V10H7V9.1H1.17V6.19H7V5.35c-1.32,0-4,.08-5.21.05L1.4,2.52c2.52,0,9.52,0,13.49-.81l1,2.91c-1,.14-1.73.25-5.2.53v1h5.68v.67H18V1.93h4.06V6.86h5.1c0,1.18,0,15.54-.81,18.7-.42,1.57-1,2.86-3.28,2.86H20.22l-.71-4.09a16.41,16.41,0,0,1-2.71,4.15Zm-10.19-15v1.49H7V12.23Zm0,3.37v1.45H7V15.6ZM16.32,11V9.1H10.67V10h5.12v9.52H10.67v1H16V22c.9-1.68,1.85-4.2,2-11Zm-5.65,1.23v1.49h1.82V12.23Zm0,3.37v1.45h1.82V15.6Zm0,7.67v1.15c1.65-.12,2.15-.15,4-.26.33-.44.45-.64.61-.89Zm10.83.87c1,0,1.15-.23,1.32-1.43.2-1.37.34-3.56.5-11.71H22.06c-.14,3.92-.64,9.08-2.43,13.14Z"/><path class="cls-2" d="M60.6,6.52H49.09V8.09h5.38V22.73H40.27V8.09h5.38V6.52H34.09V2.72H60.6ZM39,7.76V24H55.67V7.76h3.9V27.69H35.12V7.76Zm6.69,3.64H43.58v2.4h2.07Zm0,5.51H43.58v2.55h2.07Zm5.54-5.51h-2.1v2.4h2.1Zm0,5.51h-2.1v2.55h2.1Z"/><path class="cls-2" d="M91.42,8.6c-.87-.06-1.65-.09-2.27-.09a12.82,12.82,0,0,0-3.36.37c-4,1.17-8.45,5.29-8.45,9.24,0,2.63,2.1,4.17,9.26,4.17,1.32,0,2-.06,2.52-.09L88.51,27a36.35,36.35,0,0,1-9.05-.84c-5.9-1.49-6.74-5.63-6.74-7.78,0-3.81,2.46-7.06,6-9.44-2.49.2-8.85.76-11,1l-.25-4.82c1.82,0,2.66-.08,5.91-.31,6-.39,11.39-.56,17.89-.75Zm-5.68,2.77a24.22,24.22,0,0,1,3.13,5.23L86.41,18a24.14,24.14,0,0,0-3-5.35Zm3.83-1.79a25.46,25.46,0,0,1,3.25,5.18L90.33,16.1a23.91,23.91,0,0,0-3.14-5.29Z"/><path class="cls-2" d="M102,6.05a23,23,0,0,0-1.71-3L104.52,2a17.57,17.57,0,0,1,2.13,4.06h3.42a22.39,22.39,0,0,0-1.57-3.31l4.25-1a22.28,22.28,0,0,1,1.82,4.29h2.55a23.27,23.27,0,0,0,1.68-4.17l4.51,1a22.22,22.22,0,0,1-1.6,3.2h2.69V13h-3.55v1.52a33.29,33.29,0,0,1-5.8,3.36h10v3.8H114v4a2.61,2.61,0,0,1-2.71,2.88h-6l-.7-4.06h4c.76,0,1-.08,1-1.06V21.64H98.42v-3.8h11.17v-1.4h1.09A8.13,8.13,0,0,0,113.29,15H102.67V13H99.09V6.05Zm18.23,3.67H103.29v1.54h16.94Z"/><path class="cls-2" d="M131.1,24.08c1.77-3.33,2.1-6.3,2.41-11.59l4.23.47c-.22,7.54-1.65,11.54-2.35,12.94ZM148.8,10c-2.32.14-4.09,1.34-4.09,2.88,0,1,.45,1.51,1.91,3.19a8.42,8.42,0,0,1,2.4,5.57,5.4,5.4,0,0,1-5.57,5.6,13.82,13.82,0,0,1-5.54-1.34l.33-4.28a11.33,11.33,0,0,0,4.29,1.11A1.61,1.61,0,0,0,144.32,21c0-1.15-.47-1.77-1.88-3.42-1.59-1.87-2.09-2.94-2.09-4.39A5,5,0,0,1,144,8.34a29.64,29.64,0,0,0-7.75-1.06l.87-4.17a37.66,37.66,0,0,1,12.76,2.32Zm2.83,15.81a34,34,0,0,0-2.58-13.1l4.12-1c.84,1.51,2.66,5.85,3.25,13.16Zm-.06-23.65a23.94,23.94,0,0,1,2.58,5.43l-2.3,1.09a23.86,23.86,0,0,0-2.43-5.49Zm3.9-1.1A25.26,25.26,0,0,1,158,6.5l-2.32,1.09a21.42,21.42,0,0,0-2.44-5.49Z"/></g></g></svg>